<?xml version="1.0" encoding="UTF-8" standalone="no"?>
<!DOCTYPE svg PUBLIC "-//W3C//DTD SVG 1.1//EN" "http://www.w3.org/Graphics/SVG/1.1/DTD/svg11.dtd">
<svg width="1024px" height="1024px" viewBox="0 0 4267 4267" version="1.1" xmlns="http://www.w3.org/2000/svg" xmlns:xlink="http://www.w3.org/1999/xlink" xml:space="preserve" xmlns:serif="http://www.serif.com/" style="fill-rule:evenodd;clip-rule:evenodd;stroke-linecap:round;stroke-linejoin:round;stroke-miterlimit:1.5;">
    <g transform="matrix(4.16667,0,0,4.16667,0,0)">
        <g id="Artboard1" transform="matrix(0.25,0,0,0.25,0,0)">
            <rect x="0" y="0" width="4096" height="4096" style="fill:none;"/>
            <clipPath id="_clip1">
                <rect x="0" y="0" width="4096" height="4096"/>
            </clipPath>
            <g clip-path="url(#_clip1)">
                <g transform="matrix(4,0,0,4,185.115,-106.686)">
                    <g id="Layer2">
                        <rect x="-46.279" y="26.672" width="1024" height="1024" style="fill:none;"/>
                        <clipPath id="_clip2">
                            <rect x="-46.279" y="26.672" width="1024" height="1024"/>
                        </clipPath>
                        <g clip-path="url(#_clip2)">
                            <g id="Layer1" transform="matrix(1,0,0,1,-46.2788,26.6716)">
                                <g opacity="0.08">
                                    <g transform="matrix(1,0,0,1,-2870.37,-1.72209)">
                                        <path d="M3199.84,865.038C3179.61,902.652 3182.61,967.114 3192.62,992.595C3204.68,1023.26 3286.62,951.35 3283.15,921.379C3279.67,891.408 3228.84,811.109 3199.84,865.038Z" style="fill:none;stroke:black;stroke-width:1px;"/>
                                    </g>
                                    <g transform="matrix(1,0,0,1,-2881.99,0)">
                                        <path d="M3240.18,898.812C3232.24,899.986 3214.54,903.797 3216.98,928.778C3219.42,953.759 3231.01,956.811 3245.67,951.928C3260.32,947.045 3266.42,936.698 3264.59,921.729C3262.76,906.76 3248.11,897.637 3240.18,898.812Z" style="fill:none;stroke:black;stroke-width:1px;"/>
                                    </g>
                                    <g transform="matrix(1.68665,0,0,1.68665,-5480.25,-796.572)">
                                        <path d="M3242.21,901.406C3234.46,903.452 3204.16,893.977 3216.98,928.778C3225.66,952.332 3231.01,956.811 3245.67,951.928C3260.32,947.045 3257.87,935.228 3264.59,921.729C3277.95,894.902 3260.71,896.525 3242.21,901.406Z" style="fill:none;stroke:black;stroke-width:0.59px;"/>
                                    </g>
                                    <g transform="matrix(1.68665,0,0,1.68665,-4456.25,-797.572)">
                                        <path d="M3242.21,901.406C3234.46,903.452 3204.16,893.977 3216.98,928.778C3225.66,952.332 3231.01,956.811 3245.67,951.928C3260.32,947.045 3257.87,935.228 3264.59,921.729C3277.95,894.902 3260.71,896.525 3242.21,901.406Z" style="fill:none;stroke:black;stroke-width:0.59px;"/>
                                    </g>
                                    <g transform="matrix(1,0,0,1,-1857.99,-1)">
                                        <path d="M2669.2,721.372C2653.25,721.959 2637.75,736.685 2644.32,779.89C2650.88,823.095 2651.42,814.071 2676.58,843.33C2701.74,872.589 2710.13,860.011 2717.69,844.971C2725.26,829.931 2743.3,811.556 2739.75,788.066C2736.19,764.577 2699.05,720.273 2669.2,721.372Z" style="fill:none;stroke:black;stroke-width:1px;"/>
                                    </g>
                                    <g transform="matrix(1,0,0,1,-2878.86,5.38167)">
                                        <path d="M2902.38,896.383C2888.69,888.03 2859.93,908.268 2845.01,923.195C2829.79,938.407 2815.6,947.137 2806.91,968.964C2798.4,990.319 2770.08,1031.36 2785.98,1049.96C2790.78,1055.57 2826.29,1043.51 2834.8,1015.17C2840.32,996.78 2855.29,990.681 2870.93,981.9C2884.24,974.427 2923.72,987.439 2927.11,973.314C2930.51,959.188 2916.06,904.736 2902.38,896.383Z" style="fill:none;stroke:black;stroke-width:1px;"/>
                                    </g>
                                    <g transform="matrix(1,0,0,1,-2878.31,4.38167)">
                                        <path d="M3287.89,980.332C3317.51,969.21 3332.87,940.979 3331.35,920.334C3329.82,899.689 3318.94,870.827 3294.72,848.72C3266.25,822.737 3212.36,794.025 3185.33,767.295C3162.71,744.929 3147.15,731.464 3122.37,716.904C3097.68,702.393 3051.66,697.893 3025.45,697.023C3000.81,696.206 2956.7,716.419 2946.12,730.785C2932.51,749.258 2921.45,795.745 2904.95,816.173C2889.41,835.392 2843.48,824.537 2829.28,839.315C2817.94,851.11 2801.46,868.559 2793.1,882.622C2783.54,898.703 2769.34,922.898 2762.35,943.129C2754.81,964.959 2761.58,996.677 2751.35,1020.62" style="fill:none;stroke:black;stroke-width:1px;"/>
                                    </g>
                                    <g transform="matrix(1,0,0,1,-1854.31,3.38167)">
                                        <path d="M3287.89,980.332C3317.51,969.21 3332.87,940.979 3331.35,920.334C3329.82,899.689 3318.94,870.827 3294.72,848.72C3266.25,822.737 3212.36,794.025 3185.33,767.295C3162.71,744.929 3147.15,731.464 3122.37,716.904C3097.68,702.393 3051.66,697.893 3025.45,697.023C3000.81,696.206 2956.7,716.419 2946.12,730.785C2932.51,749.258 2921.45,795.745 2904.95,816.173C2889.41,835.392 2843.48,824.537 2829.28,839.315C2817.94,851.11 2801.46,868.559 2793.1,882.622C2783.54,898.703 2769.34,922.898 2762.35,943.129C2754.81,964.959 2761.58,996.677 2751.35,1020.62" style="fill:none;stroke:black;stroke-width:1px;"/>
                                    </g>
                                    <g transform="matrix(1,0,0,1,-1856.02,-1.2338)">
                                        <path d="M1890.6,615.206C1890.6,615.206 1865.45,618.113 1853.73,626.62C1845.5,632.603 1814.13,638.219 1811.52,616.597" style="fill:none;stroke:black;stroke-width:1px;"/>
                                    </g>
                                    <g transform="matrix(1,0,0,1,-832.021,-2.2338)">
                                        <path d="M1890.6,615.206C1890.6,615.206 1865.45,618.113 1853.73,626.62C1845.5,632.603 1814.13,638.219 1811.52,616.597" style="fill:none;stroke:black;stroke-width:1px;"/>
                                    </g>
                                    <g transform="matrix(0.96361,-0.267313,0.267313,0.96361,-1845.22,551.245)">
                                        <path d="M2091.56,268.618C2071.75,274.125 2038.15,294.272 2019.85,320.604C1994.33,357.342 1986.28,321.214 1992.76,290.127C1998.56,262.3 1949.86,252.842 1968.32,231.395C1985.94,210.914 2000.42,236.869 2015.44,246.51C2043,264.207 2071.9,253.828 2091.05,236.242C2109.73,219.09 2133,223.659 2127.12,238.339C2121.25,253.019 2103.98,265.166 2091.56,268.618Z" style="fill:none;stroke:black;stroke-width:1px;"/>
                                    </g>
                                    <g id="Path" transform="matrix(0.79961,0,0,0.79961,1,0.952023)">
                                        <path d="M132.29,708.29C169.94,688.71 199.56,654.88 213.55,615.45C216.62,606.79 219,597.75 221.31,589.01C224.63,576.4 228.06,563.36 233.62,551.33C245.62,525.39 267.55,504.24 286.9,485.59C295.71,477.1 303.83,468.52 306.4,457.04C307.4,452.51 308.06,447.83 308.68,443.3C309.68,436.3 310.63,429.06 313.03,422.3C318.44,407.14 330.83,395.06 342.23,385.24C344.29,383.46 346.39,381.7 348.48,379.93C358.59,371.41 369.05,362.6 376.66,351.68C383.26,342.22 387.59,331.36 391.77,320.87C394.45,314.14 397.22,307.19 400.56,300.67C409.779,282.761 423.424,267.508 440.2,256.36C461,242.53 475,219.06 478.54,192C479.85,182 479.54,171.72 479.19,161.8C478.97,155.21 478.75,148.41 479.01,141.74C479.65,125.49 490.22,91.93 502.96,80.63C530.17,56.49 533.96,55.15 555.26,51.96C559.79,51.393 564.355,51.139 568.92,51.2C573.122,51.235 577.322,51.031 581.5,50.59C595.5,48.83 609.27,41.49 620.16,29.94C627.66,21.94 634.27,10.139 638.84,-2.441L637.76,-2.441C632.91,9.179 626.76,21.47 619.44,29.25C608.71,40.64 595.19,47.87 581.37,49.6C577.231,50.034 573.071,50.234 568.91,50.2C564.298,50.138 559.687,50.395 555.11,50.97C533.53,54.2 529.72,55.55 502.3,79.88C489.37,91.35 478.65,125.29 478.01,141.7C477.75,148.4 478.01,155.23 478.19,161.83C478.52,171.71 478.85,181.93 477.55,191.83C474.04,218.6 460.23,241.83 439.65,255.51C422.722,266.749 408.951,282.134 399.65,300.2C396.29,306.76 393.51,313.73 390.82,320.48C386.66,330.92 382.35,341.72 375.82,351.09C368.28,361.9 357.88,370.67 347.82,379.14C345.72,380.907 343.63,382.68 341.55,384.46C330.05,394.37 317.55,406.56 312.07,421.94C309.63,428.78 308.63,436.07 307.67,443.13C307.05,447.63 306.42,452.29 305.41,456.78C302.89,468.01 295.21,476.13 286.18,484.83C266.77,503.54 244.77,524.76 232.7,550.83C227.1,562.94 223.65,576.02 220.32,588.68C218.02,597.4 215.65,606.42 212.59,615.04C198.68,654.23 169.24,687.86 131.81,707.32C97.34,725.33 39.104,732.01 -1.956,723.72L-2.208,724.937C10.353,727.352 25.329,728.365 38.12,728.293C71.65,728.293 107.54,721.15 132.29,708.29Z" style="fill-rule:nonzero;"/>
                                    </g>
                                    <g id="Path1" serif:id="Path" transform="matrix(0.79961,0,0,0.79961,0.680156,0.952023)">
                                        <path d="M113,751.06C129.42,747.75 146.7,743.58 161.87,735.51C169.4,731.51 175.75,725.23 181.87,719.16C187.13,713.96 192.58,708.58 198.71,704.71C214.08,695.01 225.42,677.71 232.41,653.15C234.8,644.78 236.63,636.15 238.41,627.75C240.86,616.13 243.41,604.11 247.46,592.75C262.36,551.18 280.4,524.31 304.24,508.2C309.249,504.811 313.569,500.501 316.97,495.5C323.32,486.12 325.97,474.91 328.48,464.08C330.67,454.75 332.92,445.08 337.54,436.67C343.9,425.03 354.45,416.12 364.66,407.5C374.87,398.88 385.32,390.06 391.8,378.4C396.22,370.46 398.56,361.56 400.8,352.95C402.392,346.241 404.471,339.657 407.02,333.25C416.72,310.58 435.19,293.34 449.02,282.87C476.528,261.987 494.66,231.072 499.46,196.87C500.87,186.45 500.98,175.77 501.08,165.45C501.14,159.65 501.2,153.65 501.49,147.77C502.49,127.52 506.41,112.64 513.83,100.96C526.23,81.46 551.32,68.54 579.31,67.26C585.31,66.98 591.58,67.15 597.65,67.32C614.58,67.78 632.09,68.25 646.18,59.2C649.492,56.965 652.634,54.488 655.58,51.79C658.864,48.732 662.434,45.996 666.24,43.62C673.09,39.62 681.15,38.05 688.94,36.52C692.12,35.9 695.4,35.25 698.57,34.45C707.57,32.17 728.52,23.01 735.42,9.24C736.88,6.397 737.667,0.755 737.72,-2.441L736.72,-2.441C736.662,0.589 735.909,6.066 734.52,8.76C727.78,22.22 707.23,31.21 698.33,33.45C695.18,34.25 691.91,34.89 688.75,35.51C680.87,37.05 672.75,38.65 665.75,42.72C661.893,45.132 658.274,47.905 654.94,51C652.033,53.67 648.931,56.12 645.66,58.33C631.83,67.21 614.48,66.74 597.66,66.33C591.58,66.16 585.29,65.99 579.25,66.27C551,67.53 525.56,80.62 513,100.4C503.12,115.94 501.14,134.83 500.5,147.69C500.21,153.59 500.15,159.6 500.09,165.41C499.99,175.7 499.88,186.35 498.48,196.71C493.715,230.655 475.715,261.337 448.41,282.06C434.52,292.6 415.91,309.97 406.13,332.84C403.56,339.295 401.464,345.93 399.86,352.69C397.61,361.24 395.28,370.08 390.93,377.9C384.54,389.38 374.09,398.21 363.98,406.75C353.71,415.43 343.09,424.4 336.63,436.2C331.95,444.76 329.68,454.47 327.48,463.86C324.96,474.61 322.36,485.72 316.11,494.95C312.783,499.847 308.555,504.065 303.65,507.38C279.65,523.62 261.46,550.64 246.49,592.38C242.4,603.81 239.86,615.86 237.4,627.51C235.64,635.87 233.82,644.51 231.4,652.84C224.47,677.11 213.28,694.27 198.13,703.84C191.91,707.77 186.42,713.19 181.13,718.43C175.04,724.43 168.75,730.67 161.35,734.61C146.3,742.61 129.1,746.77 112.75,750.06C105.47,751.53 96.94,753.67 87.9,755.93C70.16,760.37 62.993,762.504 42.335,766.027L42.559,767.25C61.608,763.919 72.44,760.83 88.15,756.9C97.19,754.68 105.71,752.55 113,751.06Z" style="fill-rule:nonzero;"/>
                                    </g>
                                    <g id="Path2" serif:id="Path" transform="matrix(0.79961,0,0,0.79961,0.656551,0.771832)">
                                        <path d="M682.17,744.61C675.27,738.21 665.54,733.61 656.17,729.1C649.57,725.95 643.34,722.98 638.02,719.46C625.18,710.96 615.81,698.29 606.75,686.04C605.29,684.04 603.827,682.073 602.36,680.14C592.07,666.47 579.19,651.72 561.69,645.96C549.02,641.78 535.48,638.19 522.41,640.18C516.82,641.03 511.17,642.92 505.71,644.76C498.41,647.2 490.87,649.76 483.41,649.76C473.35,649.86 465.61,647.99 459.69,644.1C454.89,640.94 450.8,636.1 446.84,628.98C440.58,617.69 439.51,605.27 438.39,592.12C437.929,585.175 437.061,578.263 435.79,571.42C430.595,545.718 432.719,519.074 441.92,494.52C443.13,491.31 444.5,488.05 445.82,484.9C450.4,473.96 455.14,462.64 454.76,450.73C454.44,440.83 450.58,431.46 446.85,422.39C443.6,414.5 440.24,406.39 439.23,397.89C437.53,383.61 442.68,370.7 447.29,362.38C453.81,350.64 463.22,340.69 470.69,333.33L471.97,332.07C477.68,326.47 483.59,320.68 486.47,313.23C489.55,305.3 488.01,294.5 480.11,290.15C475.35,287.52 468.93,287.68 462.95,290.58C457.47,293.23 452.95,297.73 449.37,301.34C442.11,308.61 435.19,315.83 430.37,324.4C425.16,333.59 422.51,344.06 419.96,354.18C417.05,365.69 414.05,377.6 407.24,387.47C401.63,395.59 393.68,401.97 386,408.14C382.38,411.05 378.64,414.05 375.17,417.21C368.94,422.89 354.66,438.03 356.75,455.98C358.68,472.63 351.63,490.98 335.75,510.42C331.62,515.5 327.13,520.48 322.8,525.3C313.8,535.3 304.42,545.71 297.7,557.6C286.37,577.6 282.95,600.95 279.64,623.49C279.23,626.32 278.81,629.15 278.39,631.96C274.49,657.52 268.52,683.79 251.34,702.79C247.107,707.276 242.602,711.497 237.85,715.43C232.1,720.43 226.15,725.54 221.38,731.6C213.57,741.53 208.85,756.76 215.83,768.02L217,768.02C209.78,757.12 214.42,742.02 222.14,732.21C226.84,726.21 232.76,721.12 238.48,716.21C243.241,712.252 247.756,708.008 252,703.5C269.36,684.3 275.38,657.86 279.29,632.15C279.723,629.337 280.143,626.51 280.55,623.67C283.85,601.23 287.25,578.02 298.49,558.13C305.16,546.34 314.49,536 323.49,526.01C327.84,521.18 332.33,516.19 336.49,511.09C352.49,491.4 359.63,472.83 357.67,455.91C355.67,438.42 369.67,423.56 375.77,417.99C379.22,414.85 382.95,411.86 386.55,408.99C394.29,402.78 402.3,396.35 407.99,388.11C414.9,378.11 417.93,366.11 420.86,354.49C423.4,344.49 426.02,334.04 431.17,324.96C435.96,316.51 442.83,309.33 450.05,302.12C453.6,298.56 458.05,294.12 463.36,291.55C469.05,288.8 475.12,288.62 479.6,291.09C487.02,295.18 488.43,305.41 485.51,312.94C482.7,320.18 476.88,325.94 471.24,331.42L469.95,332.69C462.44,340.09 452.95,350.11 446.39,361.97C441.7,370.41 436.48,383.53 438.21,398.07C439.21,406.67 442.62,414.89 445.89,422.84C449.59,431.84 453.42,441.12 453.73,450.84C454.1,462.53 449.41,473.75 444.86,484.59C443.54,487.76 442.17,491.02 440.95,494.25C431.587,518.958 429.447,545.821 434.78,571.7C436.045,578.503 436.906,585.375 437.36,592.28C438.45,604.96 439.57,618.07 445.93,629.54C449.93,636.85 454.17,641.76 459.11,645.01C465.2,649.01 473.17,650.9 483.39,650.84C491.01,650.77 498.63,648.22 505.99,645.74C511.42,643.92 516.99,642.04 522.53,641.2C535.4,639.2 548.79,642.81 561.35,646.95C578.58,652.63 591.35,667.24 601.53,680.78C603,682.78 604.46,684.7 605.92,686.67C615.03,699 624.45,711.74 637.44,720.34C642.82,723.9 649.08,726.88 655.71,730.04C665.06,734.49 674.71,739.04 681.51,745.38C688.03,751.484 692.611,759.371 694.68,768.06L695.68,768.06C693.604,759.076 688.901,750.912 682.17,744.61Z" style="fill-rule:nonzero;"/>
                                    </g>
                                    <g id="Path3" serif:id="Path" transform="matrix(0.79961,0,0,0.79961,0.558856,0.368583)">
                                        <path d="M631,744.67C628.93,743.24 626.74,741.99 624.62,740.78C619.49,737.86 614.62,735.1 611.77,730.06C602.51,713.83 592.94,697.06 579.27,683.55C564.07,668.55 545.38,660.23 527.9,660.7C519.24,660.94 510.65,663.25 502.34,665.48C491.67,668.35 480.63,671.32 469.66,669.72C440.27,665.45 426.87,632.72 422.47,618.81C409.717,578.376 411.435,534.765 427.33,495.46C428.58,492.38 429.94,489.27 431.25,486.26C434.3,479.31 437.44,472.11 439.48,464.67C441.85,456 443.54,443.3 438.13,432.05C433.62,422.68 422.72,414.18 410.61,416.05C396.47,418.25 388.74,432.74 386.41,444.49C385.391,450.298 384.759,456.168 384.52,462.06C384.09,469.01 383.64,476.19 381.85,483C378.46,495.85 370.43,507.05 362.67,517.88C360.31,521.17 357.88,524.56 355.61,527.95C337.746,554.603 327.352,585.557 325.51,617.59C325.25,622.05 325.16,626.59 325.06,631.06C324.72,646.91 324.37,663.3 316.96,677.32C314.12,682.7 310.26,687.63 306.54,692.4C302.07,698.11 297.45,704.01 294.54,710.74C286.95,728.19 291.48,747.8 297.46,768.05L298.46,768.05C292.46,747.88 287.92,728.37 295.46,711.14C298.34,704.53 302.92,698.67 307.34,693.01C311.1,688.21 314.98,683.24 317.86,677.79C325.39,663.55 325.74,647.05 326.08,631.08C326.17,626.66 326.27,622.08 326.52,617.65C328.361,585.793 338.699,555.01 356.46,528.5C358.72,525.13 361.15,521.74 363.46,518.5C371.28,507.59 379.36,496.31 382.8,483.28C384.61,476.38 385.06,469.15 385.49,462.16C385.725,456.305 386.35,450.472 387.36,444.7C389.63,433.27 397.11,419.17 410.74,417.06C422.36,415.26 432.84,423.47 437.19,432.51C442.48,443.51 440.81,455.92 438.48,464.43C436.48,471.8 433.33,478.96 430.31,485.88C428.99,488.88 427.63,492.01 426.38,495.11C410.397,534.621 408.668,578.463 421.49,619.11C425.94,633.17 439.49,666.35 469.49,670.7C480.66,672.32 491.8,669.33 502.57,666.44C510.82,664.22 519.35,661.92 527.89,661.69C545.09,661.24 563.53,669.45 578.53,684.25C592.11,697.64 601.65,714.37 610.87,730.55C613.87,735.82 618.87,738.65 624.1,741.64C626.2,742.84 628.37,744.07 630.4,745.48C638.27,750.92 644.47,755.85 649.1,762.2C650.445,764.038 651.616,765.996 652.6,768.05L653.69,768.05C652.645,765.784 651.379,763.627 649.91,761.61C645.21,755.16 639,750.17 631,744.67Z" style="fill-rule:nonzero;"/>
                                    </g>
                                    <g id="Path4" serif:id="Path" transform="matrix(0.79961,0,0,0.79961,0.530766,0.835102)">
                                        <path d="M567.48,735.8C559.27,721.91 550.78,707.54 536.43,699.9C522.86,692.68 506.91,693.04 491.49,693.38C477.49,693.69 463.1,694.01 450.38,688.76C438.52,683.85 427.95,673.76 420.63,660.25C413.85,647.77 410.31,633.86 407.51,620.68C395.68,565.19 398.51,521.46 416.02,487L417.3,484.52C420.45,478.52 423.7,472.23 423.5,465.43C423.265,460.682 420.93,456.285 417.13,453.43C414.577,451.415 411.224,450.718 408.08,451.55C403.18,452.95 400.35,457.79 399.34,461.86C398.663,465.044 398.351,468.295 398.41,471.55C398.41,472.82 398.35,474.13 398.28,475.41C397.28,492.7 388.04,508.11 379.08,523.02C373.3,532.64 367.32,542.58 363.47,553.08C356.25,572.77 356.58,594.13 356.89,614.79C357.09,628.3 357.3,642.27 355.42,655.72C353.82,667.21 350.63,678.62 347.55,689.66C345.46,697.14 343.3,704.89 341.65,712.61C336.81,735.14 337.7,753.31 344.36,768.06L345.46,768.06C338.73,753.43 337.79,735.34 342.62,712.81C344.27,705.12 346.43,697.4 348.52,689.93C351.6,678.86 354.8,667.42 356.41,655.85C358.3,642.33 358.09,628.33 357.89,614.78C357.58,594.21 357.25,572.94 364.41,553.43C368.23,543.01 374.18,533.11 379.93,523.53C388.93,508.53 398.29,493 399.28,475.47C399.35,474.17 399.38,472.85 399.41,471.57C399.354,468.39 399.656,465.213 400.31,462.1C401.26,458.31 403.87,453.79 408.31,452.51C411.16,451.766 414.194,452.407 416.5,454.24C420.073,456.898 422.273,461.012 422.5,465.46C422.69,472 419.5,478.13 416.41,484.06C415.98,484.89 415.55,485.72 415.13,486.55C397.47,521.22 394.65,565.16 406.53,620.89C409.35,634.14 412.91,648.14 419.75,660.73C427.18,674.4 437.93,684.73 450,689.73C462.91,695.07 477.45,694.73 491.51,694.43C506.81,694.09 522.62,693.74 535.96,700.84C550.06,708.34 558.48,722.58 566.62,736.36C573.49,747.99 580.62,759.95 591.1,768.11L592.79,768.11C581.81,760.06 574.53,747.73 567.48,735.8Z" style="fill-rule:nonzero;"/>
                                    </g>
                                    <g id="Path5" serif:id="Path" transform="matrix(0.79961,0,0,0.79961,1,0.385863)">
                                        <path d="M61.26,375.65C66.03,371.17 70.97,366.55 77.26,364.92C86.32,362.58 95.16,367.19 99.62,370.15C103.573,372.907 107.326,375.942 110.85,379.23C113.16,381.28 115.55,383.41 118.02,385.36C125.87,391.55 133.08,394.57 140.13,394.46C147.96,394.38 156.97,389.05 157.86,380.57C158.31,376.25 156.54,371.57 153,367.64C149.8,364.12 145.63,361.64 141.59,359.42C122.93,349.29 102.89,343.55 83.64,342.82C62,342.06 22.629,349.997 -1.251,356.267L-1.251,357.258C22.539,351.048 62,343.01 83.62,343.84C102.71,344.56 122.62,350.26 141.12,360.32C145.12,362.46 149.12,364.92 152.27,368.32C155.62,372.01 157.27,376.44 156.88,380.48C156.04,388.41 147.53,393.4 140.13,393.48C133.31,393.54 126.31,390.64 118.65,384.59C116.2,382.66 113.82,380.59 111.53,378.5C107.966,375.188 104.177,372.128 100.19,369.34C95.58,366.29 86.46,361.53 77.02,363.97C70.47,365.66 65.44,370.38 60.57,374.97C59.2,376.26 57.78,377.59 56.36,378.82C45.38,388.27 16.889,394.246 -1.251,395.166L-1.251,396.174C17.069,395.284 45.87,389.23 57,379.59C58.45,378.28 59.88,376.94 61.26,375.65Z" style="fill-rule:nonzero;"/>
                                    </g>
                                    <g id="Path6" serif:id="Path" transform="matrix(0.79961,0,0,0.79961,1,0.952023)">
                                        <path d="M128.25,454.06C135.33,458.42 141.85,464.01 148.15,469.41C158.44,478.22 169.08,487.34 182.32,491.19C211.94,499.8 241.1,479.19 257.09,458.86C265.67,447.95 272.69,435.74 279.47,423.92C286.59,411.53 293.95,398.71 303.12,387.44C310.18,378.75 318.47,370.78 326.49,363.08C338.49,351.54 350.91,339.61 359.37,325.08C363.197,318.152 366.565,310.98 369.45,303.61C373.09,294.89 376.85,285.87 382.21,277.91C390.01,266.32 401.21,256.91 411.96,247.91C425.56,236.49 439.63,224.67 446.8,208.44C454.85,190.26 452.86,169.81 450.93,150.02C449.06,130.72 447.12,110.76 454.54,93.02C464,70.4 486.9,55.82 505.83,45.63C510.73,43 517.7,40.29 525.77,37.15C547.15,28.84 575.7,15.033 584.56,-2.441L583.41,-2.441C573.73,14.929 546.41,28.06 525.41,36.22C517.31,39.37 510.31,42.09 505.41,44.75C486.33,55.02 463.2,69.75 453.66,92.56C446.15,110.56 448.1,130.64 449.99,150.07C451.9,169.72 453.88,190.07 445.94,207.98C438.86,223.98 424.88,235.74 411.37,247.1C400.52,256.21 389.31,265.63 381.43,277.34C376.02,285.34 372.24,294.45 368.58,303.21C365.58,310.37 362.51,317.77 358.58,324.57C350.2,338.97 337.84,350.85 325.88,362.34C317.88,370.06 309.52,378.05 302.42,386.79C293.2,398.12 285.82,410.98 278.68,423.41C271.92,435.19 264.92,447.41 256.38,458.22C240.59,478.28 211.82,498.69 182.68,490.22C169.68,486.43 159.09,477.39 148.88,468.64C142.55,463.21 136.01,457.64 128.88,453.2C108.26,440.55 79.533,436.368 60.143,441.368C37.613,447.278 13.075,476.737 -1.292,477.084L-1.292,478.351C16.127,476.554 36.107,449.986 58.207,443.128C83.238,435.361 113.673,445.07 128.25,454.06Z" style="fill-rule:nonzero;"/>
                                    </g>
                                    <g id="Shape" transform="matrix(0.79961,0,0,0.79961,5.27027,0.902973)">
                                        <path d="M60.45,552.86C54.66,549.92 46.66,550.76 40.06,554.99C34.17,558.78 29.97,564.33 25.85,570.17C15.85,584.3 16.44,614.17 21.36,619.73C25.12,624.01 34.48,628.36 43.45,628.36C46.213,628.395 48.959,627.92 51.55,626.96C61.26,623.21 69.06,614.29 72.41,603.1C75.19,593.85 75.1,583.1 72.16,571.15C69.82,561.65 66,555.67 60.45,552.86ZM71.45,602.86C68.19,613.75 60.61,622.43 51.19,626.06C41.25,629.9 26.92,624.57 22.11,619.06C17.47,613.79 17.11,584.25 26.66,570.74C30.73,564.98 34.86,559.51 40.6,555.82C46.91,551.82 54.52,550.96 59.99,553.74C65.26,556.41 68.92,562.18 71.19,571.38C74.09,583.16 74.18,593.73 71.45,602.82L71.45,602.86Z" style="fill-rule:nonzero;"/>
                                    </g>
                                    <g id="Path7" serif:id="Path" transform="matrix(0.79961,0,0,0.79961,1,0.968797)">
                                        <path d="M80.47,277.53C83.34,278.04 86.22,278.72 89.02,279.38C94.019,280.714 99.125,281.611 104.28,282.06C113.81,282.61 122.08,279.51 126.4,273.75C133.33,264.53 129.08,251.75 123.33,243.57C118.33,236.57 111.78,230.57 105.42,224.83C97.69,217.83 89.69,210.61 84.73,201.46C78.83,190.58 77.73,177.91 76.6,165.67C75.69,155.46 74.75,144.91 71.09,135.24C65.81,121.627 55.605,110.498 42.5,104.06C29.271,97.65 12.861,96.85 -1.292,100.825L-1.292,101.345L-1.251,101.796C12.697,97.829 29.007,98.613 42.06,104.93C54.942,111.264 64.969,122.213 70.15,135.6C73.77,145.13 74.7,155.6 75.61,165.76C76.71,178.1 77.85,190.87 83.85,201.94C88.85,211.24 96.95,218.53 104.75,225.57C111.07,231.29 117.6,237.19 122.51,244.15C128.07,252.03 132.21,264.36 125.6,273.15C121.48,278.64 113.52,281.59 104.34,281.06C99.243,280.616 94.194,279.73 89.25,278.41C86.44,277.74 83.54,277.06 80.65,276.54C65.26,273.81 22.967,288.369 -1.533,303.639L-1.533,304.889C22.517,289.749 65.48,274.85 80.47,277.53Z" style="fill-rule:nonzero;"/>
                                    </g>
                                    <g id="Path8" serif:id="Path" transform="matrix(0.79961,0,0,0.79961,0.792101,0.952023)">
                                        <path d="M120.14,87.18C120.98,97.26 120.25,107.55 119.54,117.5C119.21,122.25 118.86,127.16 118.68,131.99C118.25,143.88 118.68,161.36 126.87,175.91C134,188.5 146,197.42 157.54,206.06C166.54,212.78 175.88,219.73 182.94,228.4C184.94,230.85 186.85,233.54 188.7,236.13C194.56,244.35 200.62,252.84 210.32,255.82C212.587,256.521 214.947,256.875 217.32,256.87C227.19,256.87 236.53,251.05 242.23,245.15C248.32,238.84 252.69,231.15 256.91,223.63C258.29,221.2 259.7,218.69 261.16,216.27C265.92,208.34 273.61,197.27 285.32,192.79C294.32,189.33 304.32,190.18 314.09,191L318.87,191.39C328.55,192.09 342.46,192.08 351.49,183.87C361.06,175.18 361.41,160.87 358.56,150.44C356.42,142.63 352.56,135.32 348.88,128.26C347.16,124.97 345.37,121.57 343.79,118.17C328.48,85.26 331.445,25.469 355.88,-3.692L354.52,-3.692C343.32,9.378 336.06,32.32 333.88,54.96C331.67,77.96 335.04,101.7 342.88,118.58C344.48,122 346.27,125.41 348,128.71C351.68,135.71 355.49,142.99 357.59,150.71C360.37,160.88 360.05,174.71 350.82,183.13C342.1,191.06 328.47,191.06 319,190.38L314.23,190C304.4,189.17 294.23,188.31 285.02,191.84C273.02,196.44 265.2,207.69 260.36,215.74C258.9,218.17 257.48,220.69 256.1,223.13C251.91,230.55 247.57,238.23 241.57,244.45C234.72,251.53 222.51,258.51 210.64,254.86C201.27,251.97 195.31,243.62 189.55,235.54C187.68,232.93 185.76,230.23 183.75,227.76C176.61,219 167.24,212.01 158.17,205.25C146.68,196.68 134.79,187.83 127.77,175.42C119.66,161.09 119.29,143.79 119.71,132.03C119.89,127.21 120.23,122.31 120.57,117.58C121.28,107.58 122.01,97.25 121.16,87.1C119.71,69.75 112.16,49.45 100.98,32.8C93.56,21.82 81.89,5.779 65.53,-2.441L63.26,-2.441C96.946,16.04 117.86,59.95 120.14,87.18Z" style="fill-rule:nonzero;"/>
                                    </g>
                                    <g id="Path9" serif:id="Path" transform="matrix(0.79961,0,0,0.79961,0.768113,0.952023)">
                                        <path d="M143.76,54.4C143.42,66.55 140.76,78.68 138.19,90.4C136.19,99.57 134.11,109.05 133.13,118.53C130.43,144.81 138.51,166.75 154.74,177.23C159.53,180.32 164.96,182.38 170.21,184.37C175.46,186.36 180.63,188.37 185.27,191.27C188.247,193.257 191.102,195.421 193.82,197.75C199.82,202.68 206,207.75 213.82,208.44C214.4,208.49 214.99,208.52 215.57,208.52C224.06,208.52 232.57,203.24 241.42,192.43C242.13,191.57 242.85,190.68 243.56,189.8C249.74,182.16 256.13,174.27 265.41,171.5C270.79,169.89 276.59,170.25 282.19,170.6C286.315,170.965 290.465,170.965 294.59,170.6C309.21,168.92 321.94,156.89 324.19,142.6C326.19,129.89 320.66,117.65 315.31,105.82C314.31,103.7 313.4,101.59 312.49,99.48C299.071,68.138 295.645,30.919 302.68,-2.441L301.68,-2.441C294.637,31.09 298.101,68.478 311.6,99.97C312.5,102.08 313.46,104.19 314.42,106.32C319.71,118.02 325.18,130.12 323.23,142.54C321,156.36 308.67,168.06 294.47,169.66C290.404,170.015 286.316,170.015 282.25,169.66C276.56,169.31 270.67,168.94 265.12,170.6C255.55,173.46 249.06,181.48 242.79,189.23L240.65,191.86C231.38,203.13 222.65,208.25 213.91,207.51C206.39,206.87 200.59,202.09 194.45,197.04C191.706,194.683 188.82,192.496 185.81,190.49C181.08,187.49 175.74,185.49 170.57,183.49C165.4,181.49 159.98,179.49 155.28,176.49C139.38,166.22 131.47,144.63 134.13,118.74C135.13,109.31 137.13,99.86 139.13,90.74C141.71,78.97 144.37,66.74 144.72,54.55C145.23,37.66 141.5,17.359 133.37,-2.441L132.29,-2.441C140.47,17.379 144.23,37.67 143.76,54.4Z" style="fill-rule:nonzero;"/>
                                    </g>
                                    <g id="Path10" serif:id="Path" transform="matrix(0.79961,0,0,0.79961,0.2124,0.976012)">
                                        <path d="M169.07,80.26C166.5,86.52 162.77,92.39 159.16,98.06C155.591,103.365 152.431,108.934 149.71,114.72C144.38,126.88 143.79,143.04 154.5,151.72C159.18,155.53 165.16,157.1 170.95,158.62C174.571,159.488 178.119,160.638 181.56,162.06C184.221,163.306 186.805,164.709 189.3,166.26C194.53,169.36 199.91,172.56 205.93,172.56C206.38,172.56 206.84,172.56 207.3,172.51C213.25,172.02 218.08,168.37 222.75,164.85C226.16,162.27 229.69,159.61 233.64,158.17C239.73,155.95 246.5,156.7 253.05,157.42C259.82,158.18 266.83,158.95 273.2,156.5C285.54,151.74 290.29,136.74 288.6,124.37C287.39,115.46 283.67,107.07 280.07,98.95C278.61,95.68 277.07,92.28 275.8,88.95C266.45,64.95 267.21,25.66 273.54,0.14L272.54,0.14C266.23,25.84 265.54,65.24 274.89,89.31C276.22,92.71 277.73,96.11 279.18,99.4C282.76,107.4 286.45,115.78 287.64,124.55C289.28,136.55 284.73,151.04 272.87,155.6C266.73,157.97 259.87,157.21 253.19,156.47C246.51,155.73 239.63,154.97 233.33,157.27C229.23,158.76 225.64,161.47 222.17,164.09C217.41,167.69 212.91,171.09 207.25,171.55C200.99,172.06 195.58,168.85 189.84,165.44C187.316,163.825 184.698,162.363 182,161.06C178.505,159.635 174.904,158.485 171.23,157.62C165.29,156.06 159.68,154.62 155.16,150.92C144.91,142.6 145.64,126.51 150.65,115.09C153.345,109.365 156.47,103.852 160,98.6C163.63,92.89 167.39,86.99 170,80.6C178.28,60.43 172.14,25.97 166.08,0.03L165.08,0.03C171.1,25.88 177.28,60.27 169.07,80.26Z" style="fill-rule:nonzero;"/>
                                    </g>
                                    <g id="Shape1" serif:id="Shape" transform="matrix(0.79961,0,0,0.79961,0.613295,0.942831)">
                                        <path d="M207.48,143.99C209.308,143.994 211.131,143.807 212.92,143.43C219.92,141.94 226.84,137.56 232.92,130.74C243.634,118.649 248.956,102.713 247.66,86.61C246.8,76.4 241.77,68.81 233.48,65.23C223.26,60.81 209.48,63.32 199.23,71.46C181.01,85.91 169.13,110.65 181.68,129.95C187.453,138.583 197.096,143.831 207.48,143.99ZM199.81,72.24C206.238,67.08 214.198,64.202 222.44,64.059C226.065,64.032 229.658,64.743 233,66.15C240.93,69.57 245.76,76.87 246.59,86.69C247.864,102.511 242.643,118.169 232.13,130.06C226.24,136.71 219.52,140.99 212.71,142.44C201.64,144.78 188.92,139.3 182.48,129.39C170.25,110.6 182,86.42 199.81,72.24Z" style="fill-rule:nonzero;"/>
                                    </g>
                                    <g id="Path11" serif:id="Path" transform="matrix(0.79961,0,0,0.79961,0.295195,0.952023)">
                                        <path d="M682.41,719.19L679.18,717.29C668.57,711.05 657.59,704.59 648.88,695.84C639.88,686.84 633.52,675.59 627.33,664.71C625.49,661.46 623.58,658.1 621.63,654.86C614.69,643.3 603.51,627.16 586.63,620.44C571.69,614.52 554.9,616.78 541.93,619.44C538.46,620.14 534.93,620.93 531.53,621.7C520.53,624.19 509.1,626.7 497.66,626.7C480.53,626.59 466.11,619.88 459.11,608.7C454.53,601.43 453.27,592.7 452.45,585.09C449.35,556.44 450.76,515.46 457.75,502.45C458.75,500.6 459.91,498.55 461.14,496.38C468.68,483.12 478.99,464.96 475.77,449.38C474.23,441.97 470.16,434.17 466.21,426.62C460.49,415.67 454.57,404.35 456.01,393.72C457.94,379.47 468.31,369.3 479.29,358.54C492.77,345.32 506.72,331.66 507.21,308.84C507.33,303.34 505.45,295.74 503.63,288.4C501.69,280.53 499.63,272.4 500.03,266.66C500.54,258.28 503.14,253.45 506.14,247.85C508.369,243.924 510.253,239.812 511.77,235.56C518.26,216.66 522.52,194.28 525.18,165.14C527.18,142.76 529.52,117.39 550.12,105.4C564.12,97.27 581.06,96.99 597.47,96.73C613.24,96.47 629.55,96.21 643.47,89.07C650.47,85.49 656.47,80.33 662.3,75.33C665.48,72.6 668.78,69.77 672.19,67.24C679.06,62.14 693.26,57.66 706.98,53.34C718.15,49.81 728.69,46.49 734.8,43C743.51,38 752.48,24.5 755.66,11.54C756.616,7.793 756.967,1.416 756.7,-2.441L755.7,-2.441C755.948,1.335 755.59,7.627 754.64,11.29C751.52,24.02 742.75,37.29 734.25,42.13C728.25,45.56 717.74,48.87 706.63,52.37C692.83,56.73 678.55,61.23 671.54,66.43C668.1,68.98 664.79,71.82 661.59,74.56C655.81,79.56 649.84,84.65 642.96,88.17C629.26,95.17 613.07,95.46 597.42,95.72C580.87,95.98 563.77,96.26 549.57,104.53C528.57,116.78 526.2,142.42 524.14,165.04C521.5,194.1 517.25,216.4 510.78,235.22C509.283,239.424 507.422,243.489 505.22,247.37C502.16,253.07 499.52,257.99 498.99,266.59C498.62,272.47 500.66,280.68 502.62,288.59C504.43,295.87 506.29,303.4 506.17,308.76C505.69,331.18 491.89,344.7 478.55,357.76C467.44,368.7 457,378.98 455,393.58C453.52,404.52 459.51,415.99 465.31,427.08C469.22,434.56 473.26,442.3 474.77,449.57C477.92,464.79 467.71,482.76 460.25,495.89C459.02,498.06 457.85,500.12 456.85,501.98C449.78,515.15 448.32,556.4 451.43,585.2C452.27,592.92 453.55,601.78 458.24,609.2C465.43,620.62 480.16,627.5 497.64,627.62C509.18,627.71 520.64,625.12 531.73,622.62C535.13,621.85 538.65,621.06 542.11,620.36C554.94,617.75 571.55,615.51 586.24,621.36C602.88,627.96 613.93,643.93 620.79,655.36C622.73,658.6 624.64,661.95 626.48,665.2C632.7,676.14 639.14,687.45 648.19,696.54C656.99,705.38 668.03,711.87 678.7,718.14L681.92,720.04C693.45,726.86 705.41,734.42 713.84,745.16C719.126,751.747 722.483,759.67 723.54,768.05L724.54,768.05C723.492,759.444 720.055,751.304 714.62,744.55C706.07,733.67 694,726.06 682.41,719.19Z" style="fill-rule:nonzero;"/>
                                    </g>
                                    <g id="Path12" serif:id="Path" transform="matrix(0.79961,0,0,0.79961,0.883298,0.912043)">
                                        <path d="M824.65,657.89C811.91,657 798.73,657.82 785.99,658.61C762.9,660.06 738.99,661.55 717.73,652.61C698.46,644.54 683.73,628.94 669.55,613.86C665.61,609.67 661.55,605.34 657.42,601.24C640.31,584.19 614.04,565.1 586.08,570.93C578.32,572.55 571.08,576.04 564.08,579.43C558.387,582.368 552.468,584.846 546.38,586.84C525.66,592.97 501.89,586.62 487.22,571.04C472.55,555.46 468.05,531.78 476,512.06C479,504.56 483.75,497.52 488.33,490.7C495.68,479.76 503.28,468.45 503.63,455.28C503.89,445.15 499.73,435.6 495.72,426.37C492.26,418.43 488.72,410.22 487.92,401.65C486.69,387.65 492.85,372.49 506.77,355.31C509.37,352.11 512.12,348.91 514.77,345.81C523.3,335.87 532.12,325.59 537.4,313.5C543.93,298.5 544.32,277.14 529.76,265.5C518.46,256.5 526.68,235.57 529.47,229.38C532.172,223.76 535.259,218.334 538.71,213.14C542.228,207.854 545.363,202.324 548.09,196.59C551.16,189.73 553.09,182.36 554.88,175.23C556.367,168.849 558.271,162.572 560.58,156.44C567.992,138.355 582.012,123.771 599.79,115.65C619.58,106.65 642.65,106.21 663.01,105.84C671.28,105.683 679.265,102.785 685.71,97.6C691.43,93.06 696.11,87.32 700.64,81.78L702.35,79.68C707.35,73.62 712.8,67.34 719.85,63.04C723.265,61.073 726.818,59.355 730.48,57.9C732.66,57.06 734.9,56.06 737.06,55.06C742.58,52.36 787.14,27.199 789.51,-2.391L788.51,-2.391C786.27,21.069 756,44.63 736.62,54.11C734.49,55.11 732.25,56.11 730.09,57.01C726.383,58.486 722.787,60.228 719.33,62.22C712.14,66.6 706.62,72.95 701.58,79.08L699.86,81.18C695.37,86.68 690.73,92.37 685.09,96.84C678.812,101.88 671.039,104.693 662.99,104.84C642.54,105.21 619.36,105.64 599.38,114.74C581.366,122.963 567.16,137.738 559.65,156.06C557.318,162.259 555.4,168.606 553.91,175.06C552.09,182.15 550.21,189.48 547.18,196.26C544.466,201.95 541.351,207.441 537.86,212.69C534.386,217.922 531.279,223.389 528.56,229.05C525.7,235.41 517.27,256.87 529.14,266.36C542.66,277.17 543.07,298.1 536.48,313.18C531.26,325.18 522.48,335.35 514.01,345.24C511.34,348.34 508.59,351.55 506.01,354.76C491.93,372.15 485.69,387.55 486.95,401.82C487.72,410.55 491.33,418.82 494.82,426.82C498.82,435.95 502.9,445.39 502.65,455.3C502.31,468.18 495.13,478.87 487.52,490.19C482.91,497.05 478.15,504.14 475.09,511.73C467.01,531.79 471.6,555.91 486.52,571.73C501.44,587.55 525.62,594.04 546.69,587.81C552.89,585.97 558.81,583.11 564.54,580.34C571.54,576.98 578.67,573.51 586.32,571.91C613.84,566.17 639.81,585.09 656.74,601.91C660.84,605.99 664.92,610.32 668.86,614.5C683.14,629.66 697.86,645.34 717.37,653.5C738.89,662.5 762.88,661.01 786.08,659.56C798.79,658.77 811.94,657.95 824.61,658.84C884.24,663.06 938,710.63 949,768.06L950,768.06C939,710.12 884.81,662.12 824.65,657.89Z" style="fill-rule:nonzero;"/>
                                    </g>
                                    <g id="Path13" serif:id="Path" transform="matrix(0.79961,0,0,0.79961,0.818076,0.952023)">
                                        <path d="M770.56,52.67L770.27,52.87C735.78,78.22 700.11,104.43 659.27,120.32C649.86,123.99 641.04,128.53 640.27,136.92C639.57,144.92 647.64,151.41 655.63,152.5C656.893,152.673 658.166,152.756 659.44,152.75C664.93,152.75 670.38,151.3 675.69,149.89C676.8,149.6 677.91,149.3 679.02,149.02C697.595,144.332 716.928,143.458 735.85,146.45C738.65,146.89 741.51,147.45 744.27,147.96C753.44,149.7 762.91,151.5 772.27,150.21C783.41,148.69 794.78,142.68 806.07,132.33C813.27,125.72 819.73,118.2 825.97,110.93C831.842,103.836 838.091,97.063 844.69,90.64C854.23,81.64 873.54,67.06 895.62,69.88C908.62,71.54 919.85,78.95 930.71,86.13C938.56,91.31 946.71,96.67 955.54,99.98C982.68,110.11 1016.77,99.42 1036.61,74.57C1052.03,55.25 1059.13,28.57 1056.61,0.06L1055.61,0.06C1058.07,28.3 1051.05,54.81 1035.78,73.94C1016.27,98.47 982.65,109.06 955.91,99.06C947.15,95.79 939.08,90.46 931.28,85.31C920.32,78.06 909,70.57 895.76,68.88C873.28,66.06 853.7,80.82 844,89.91C837.38,96.359 831.108,103.155 825.21,110.27C818.99,117.53 812.55,125.03 805.39,131.59C794.26,141.8 783.07,147.73 772.13,149.22C762.93,150.48 753.53,148.7 744.45,146.98C741.68,146.45 738.81,145.91 736,145.46C716.95,142.455 697.489,143.34 678.79,148.06C677.67,148.34 676.56,148.64 675.44,148.94C669,150.65 662.34,152.41 655.77,151.52C648.24,150.52 640.62,144.42 641.28,137.02C641.97,129.18 650.5,124.81 659.62,121.27C700.62,105.27 736.32,79.07 770.86,53.69L771.15,53.48C785,43.27 815.28,21.06 816.35,0.06L815.35,0.06C814.29,20.53 784.31,42.56 770.56,52.67Z" style="fill-rule:nonzero;"/>
                                    </g>
                                    <g id="Path14" serif:id="Path" transform="matrix(0.79961,0,0,0.79961,0.681553,1)">
                                        <path d="M1012,719.71C1003.71,700.58 990.57,682.35 972.94,665.54C956.75,650.11 940.75,639.65 924.01,633.54C896.56,623.54 866.55,625.34 837.52,627.07C825.05,627.81 812.16,628.57 799.63,628.4C788.08,628.24 773.13,627.28 759.87,621.17C742.95,613.38 728.73,599.48 716.38,578.68C698.99,549.38 660.52,533.39 626.9,541.48C617.66,543.7 608.81,547.54 600.26,551.26C593.588,554.274 586.766,556.945 579.82,559.26C560.77,565.26 543.05,563.26 532.4,553.95C515.77,539.38 520.4,513.33 523.12,502.81C524.44,497.74 526.12,492.62 527.69,487.66C531.69,475.16 535.87,462.23 535.22,448.99C534.81,440.79 532.54,432.68 530.35,424.83C527.62,415.04 524.79,404.91 525.68,394.74C527.06,379.04 536.44,366.39 546.38,353.01C553.55,343.34 560.97,333.35 565.01,322.14C569.83,308.77 569.63,294.3 569.43,280.31C569.3,270.98 569.16,261.31 570.51,252.05C574.89,221.83 595.89,194.05 625.31,179.6C653.1,165.93 687.08,164.16 718.54,174.74C723.06,176.27 727.67,178.07 732.14,179.81C747.25,185.72 762.89,191.81 778.78,188.74C800.78,184.48 815.46,163.97 827.23,147.5C839.9,129.76 855.72,111.41 876.95,109.79C892.19,108.63 905.42,116.05 919.43,123.9C926.22,127.71 933.24,131.65 940.43,134.46C957.53,141.12 977.17,141.68 997.22,136.09C1016.15,130.613 1033.57,120.839 1048.11,107.53C1072.11,85.53 1107.38,36.739 1121.95,-2.501L1120.89,-2.501C1106.33,36.499 1071.3,85 1047.44,106.79C1015.63,135.88 973.77,146.37 940.79,133.53C933.65,130.74 926.66,126.82 919.89,123.03C906.37,115.45 892.39,107.61 876.89,108.8C855.25,110.44 839.24,128.99 826.43,146.92C814.77,163.25 800.25,183.57 778.61,187.76C763,190.76 747.5,184.76 732.52,178.88C728.05,177.13 723.42,175.33 718.88,173.8C687.18,163.13 652.88,164.91 624.88,178.7C595.17,193.32 573.96,221.37 569.53,251.9C568.17,261.26 568.31,270.9 568.44,280.33C568.64,294.23 568.84,308.6 564.08,321.8C560.08,332.87 552.72,342.8 545.59,352.41C536,365.32 526.1,378.67 524.7,394.65C523.79,405 526.64,415.22 529.4,425.1C531.58,432.89 533.82,440.95 534.23,449.04C534.88,462.1 530.74,474.94 526.75,487.36C525.15,492.36 523.49,497.46 522.16,502.56C519.37,513.26 514.71,539.77 531.76,554.71C542.67,564.27 560.76,566.33 580.13,560.21C587.11,557.878 593.963,555.181 600.66,552.13C609.18,548.44 617.99,544.62 627.15,542.41C660.35,534.41 698.35,550.21 715.53,579.15C727.99,600.15 742.36,614.15 759.46,622.04C772.89,628.22 787.98,629.2 799.62,629.36C812.18,629.53 825.1,628.77 837.62,628.03C866.54,626.31 896.46,624.53 923.71,634.44C940.32,640.44 956.2,650.87 972.29,666.21C989.82,682.92 1002.89,701.04 1011.12,720.05C1017.82,735.162 1021.27,751.518 1021.22,768.05L1022.22,768.05C1022.24,751.398 1018.76,734.928 1012,719.71Z" style="fill-rule:nonzero;"/>
                                    </g>
                                    <g id="Path15" serif:id="Path" transform="matrix(0.79961,0,0,0.79961,0.400302,0.610237)">
                                        <path d="M1009.81,618.54C978.17,586.07 938.81,567.93 901.68,568.75C885.96,569.1 870.4,572.75 855.36,576.28C848.36,577.92 841.1,579.62 833.94,580.97C805.58,586.28 783.81,583.97 767.4,573.97C756.77,567.48 748.65,557.71 740.79,548.26C736.79,543.44 732.66,538.47 728.22,533.95C700.54,505.78 657.61,493.62 618.84,502.95C608.48,505.45 593.26,503.61 582.48,501.06C570.77,498.29 561.69,490.5 559.34,481.21C557.63,474.45 559.28,467.73 561.03,460.63C562.19,455.89 563.4,450.99 563.5,446.11C563.63,439.64 561.83,433.29 560.09,427.16C558.42,421.3 556.71,415.25 556.7,409.16C556.7,392.11 569.46,377.91 582.55,364.82C595.22,352.15 610.99,336.39 630.83,331.27C648.77,326.64 666.57,330.93 685.4,335.47C698.03,338.47 711.08,341.66 724.05,341.8C740.35,341.93 756.72,337.4 772.55,332.99C795.33,326.65 816.85,320.66 838.31,327.41C851.58,331.59 862.77,340.36 873.59,348.84C879.09,353.16 884.79,357.62 890.71,361.46C912.38,375.46 939.8,383.03 972.23,383.89C993.62,384.46 1011.59,381.96 1027.23,376.24C1037.53,372.47 1047.12,366.84 1056.4,361.4C1063.7,356.933 1071.25,352.87 1079,349.23C1102.68,338.67 1114,346.53 1124.88,354.14C1129.55,357.39 1134.38,360.76 1140.06,362.52C1145.21,364.13 1150.36,365.94 1155.33,367.68C1170.65,373.06 1185.11,378.15 1201.22,378.34C1210.42,378.46 1221.45,380.4 1233.13,382.46C1248.72,385.21 1265.84,394.974 1280.12,394.643L1280.12,393.63C1266.05,393.902 1248.86,384.22 1233.31,381.48C1221.58,379.41 1210.51,377.48 1201.23,377.34C1185.29,377.15 1170.9,372.09 1155.67,366.74C1150.67,364.99 1145.52,363.18 1140.35,361.57C1134.82,359.85 1130.27,356.68 1125.45,353.32C1114.3,345.56 1102.78,337.53 1078.59,348.32C1070.79,351.975 1063.2,356.054 1055.85,360.54C1046.61,365.96 1037.06,371.54 1026.85,375.3C1011.37,380.97 993.51,383.46 972.26,382.89C940.02,382.04 912.76,374.55 891.26,360.62C885.37,356.81 879.69,352.36 874.26,348.06C863.37,339.52 852.11,330.69 838.66,326.46C816.92,319.61 794.25,325.93 772.34,332.03C756.57,336.42 740.22,340.93 724.11,340.8C711.25,340.66 698.26,337.53 685.69,334.5C667.56,330.13 648.81,325.61 630.63,330.3C610.52,335.48 594.63,351.36 581.89,364.12C568.66,377.35 555.74,391.73 555.75,409.12C555.75,415.35 557.49,421.47 559.17,427.39C560.85,433.31 562.68,439.73 562.55,446.05C562.45,450.82 561.26,455.66 560.11,460.35C558.41,467.26 556.65,474.41 558.42,481.41C560.86,491.06 570.23,499.14 582.3,501.99C587.59,503.24 605.87,507.07 619.12,503.88C657.56,494.62 700.12,506.68 727.55,534.6C731.96,539.09 736.09,544.05 740.07,548.85C747.98,558.36 756.16,568.19 766.93,574.78C783.56,584.94 805.56,587.27 834.17,581.91C841.36,580.56 848.62,578.91 855.63,577.22C870.63,573.7 886.14,570.06 901.75,569.71C938.55,568.87 977.7,586.92 1009.15,619.19C1037.52,648.31 1056.94,684.42 1075.72,719.34L1101.85,768.06L1103,768.06L1076.57,718.91C1057.74,683.93 1038.29,647.75 1009.81,618.54Z" style="fill-rule:nonzero;"/>
                                    </g>
                                    <g id="Path16" serif:id="Path" transform="matrix(0.79961,0,0,0.79961,0.279469,0.311857)">
                                        <path d="M1188.74,710.06C1173.82,699.6 1155.96,693.56 1138.68,687.72L1137.53,687.33C1111.9,678.66 1088.95,659.46 1065.3,626.92C1059.51,618.92 1053.92,610.61 1048.5,602.55C1036.42,584.55 1023.92,565.96 1008.5,550.17C982.5,523.62 951.19,510.09 922.5,513.04C904.24,514.92 887.43,523.24 871.17,531.28C867.98,532.85 864.69,534.48 861.45,536.03C843.82,544.45 820.76,553.4 798.72,547.86C779.49,543.02 764.91,528.22 750.8,513.86C735.8,498.67 720.36,482.97 699.36,479.32C685.43,476.89 671.3,480.32 657.64,483.61C654.21,484.44 650.64,485.3 647.18,486.04C624.88,490.83 608.08,488.51 597.26,479.13C584.81,468.34 582.66,450.41 581.53,432.97C580.27,413.42 579.95,396.07 588.87,381.78C602.82,359.45 634.46,354.61 659.42,357.53C668.9,358.63 678.47,360.53 687.73,362.45C704.18,365.77 721.19,369.22 738.2,368.09C751.66,367.21 765.28,363.49 778.46,359.9C801.65,353.58 823.56,347.6 844.89,355.55C859.12,360.85 870.16,371.74 880.89,382.27C887.68,388.96 894.7,395.88 902.54,401.43C936.18,425.19 981.86,421.98 1013.28,417.49C1020.51,416.49 1027.88,415.26 1035,414.11C1065.24,409.2 1096.5,404.11 1126.7,409.95C1140.7,412.64 1155.31,410.45 1169.45,408.33C1185.21,405.97 1201.51,403.53 1216.67,408C1225.36,410.57 1234.88,415 1244.96,419.64C1256.72,425.08 1268.8,430.64 1280.05,433.45L1280.05,432.45C1268.96,429.67 1257.05,424.15 1245.38,418.76C1235.27,414.08 1225.71,409.66 1216.96,407.07C1201.58,402.54 1185.17,405 1169.3,407.38C1155.24,409.48 1140.71,411.66 1126.88,408.99C1096.51,403.14 1065.16,408.23 1034.88,413.15C1027.76,414.31 1020.4,415.5 1013.18,416.53C981.93,420.99 936.51,424.2 903.18,400.64C895.4,395.15 888.41,388.25 881.65,381.59C870.78,371.06 859.66,360.06 845.23,354.67C823.6,346.62 800.51,352.91 778.23,359C765.1,362.57 751.52,366.27 738.16,367.16C721.29,368.27 704.34,364.84 687.96,361.53C678.68,359.65 669.08,357.71 659.56,356.59C634.3,353.65 602.25,358.59 588.06,381.31C578.97,395.85 579.29,413.37 580.56,433.09C581.71,450.74 583.89,468.9 596.63,479.94C607.7,489.54 624.79,491.94 647.42,487.08C650.91,486.33 654.42,485.47 657.9,484.64C671.47,481.36 685.49,477.97 699.22,480.36C719.9,483.96 735.22,499.55 750.12,514.62C764.32,529.04 779.01,543.94 798.51,548.85C820.86,554.47 844.13,545.44 861.91,536.95C865.16,535.4 868.45,533.77 871.64,532.2C887.82,524.2 904.55,515.92 922.64,514.05C951,511.14 982.04,524.56 1007.8,550.89C1023.2,566.61 1035.66,585.17 1047.72,603.12C1053.14,611.19 1058.72,619.54 1064.55,627.52C1088.32,660.25 1111.42,679.52 1137.26,688.3L1138.41,688.68C1155.62,694.5 1173.41,700.52 1188.22,710.89C1207.35,724.369 1220.24,745.121 1224.05,768.214L1225.25,767.884C1221.42,744.45 1208.16,723.719 1188.74,710.06Z" style="fill-rule:nonzero;"/>
                                    </g>
                                    <g id="Shape2" serif:id="Shape" transform="matrix(0.79961,0,0,0.79961,0.826206,0.997563)">
                                        <path d="M854.69,392.89C840.8,383.48 821.3,380.06 798.28,383.06C788.4,384.34 778.52,386.57 768.97,388.73C759.9,390.78 750.52,392.9 741.16,394.19C712.16,398.19 685.51,392.35 657.32,386.19L657.13,386.19C645.44,383.62 617.3,380.59 608.75,407.99C605.143,419.797 608.002,432.631 616.28,441.79C629.99,456.58 653.47,456.91 669.93,455.87L675.45,455.5C692.78,454.29 710.71,453.05 725.66,461.09C734.59,465.89 741.52,473.62 748.23,481.09C749.88,482.93 751.59,484.84 753.3,486.67C765,499.06 775.7,506.36 787.09,509.51C790.72,510.525 794.471,511.047 798.24,511.06C809.11,511.06 819.31,506.81 825.17,499.3C828.05,495.6 829.9,491.25 831.69,487.04C833.026,483.639 834.642,480.354 836.52,477.22C840.6,470.81 846.84,465.91 852.88,461.16C859.44,456.01 866.23,450.68 870.31,443.38C880.29,425.48 870,403.25 854.69,392.89ZM869.44,442.89C865.44,450.02 858.75,455.28 852.26,460.38C846.16,465.17 839.84,470.13 835.67,476.69C833.768,479.885 832.13,483.229 830.77,486.69C829.01,490.84 827.18,495.13 824.38,498.69C816.78,508.44 801.55,512.51 787.38,508.59C776.18,505.5 765.59,498.31 754.06,485.98C752.36,484.15 750.65,482.25 749,480.41C742.24,472.86 735.25,465.06 726.16,460.17C716.46,454.96 705.6,453.58 694.47,453.58C688.15,453.58 681.74,454.03 675.41,454.47L669.9,454.84C653.64,455.84 630.47,455.56 617.05,441.08C609.005,432.19 606.228,419.724 609.74,408.26C618.04,381.65 645.52,384.62 656.95,387.14L657.13,387.14C685.42,393.36 712.13,399.23 741.32,395.19C750.73,393.89 760.13,391.77 769.23,389.71C778.75,387.56 788.6,385.33 798.44,384.06C821.21,381.11 840.44,384.46 854.15,393.73C869,403.83 879.14,425.49 869.44,442.85L869.44,442.89Z" style="fill-rule:nonzero;"/>
                                    </g>
                                    <g id="Shape3" serif:id="Shape" transform="matrix(0.79961,0,0,0.79961,0.874951,0.654253)">
                                        <path d="M819.31,396.88C808.77,395.38 798.16,397.93 787.9,400.39C786.05,400.83 784.22,401.27 782.38,401.69C758.983,407.019 734.88,408.535 711,406.18L709.68,406.05C702.6,405.33 695.27,404.6 688.85,407.58C684.99,409.37 680.6,414.65 680.2,419.65C679.9,422.348 681.161,424.981 683.45,426.44C686.63,428.58 692.73,428.56 698.66,428.57C701.86,428.444 705.064,428.622 708.23,429.1C725.17,432.689 740.355,442.005 751.23,455.48C753.05,457.79 754.77,460.24 756.42,462.62C759.041,466.594 761.966,470.359 765.17,473.88C771,479.97 777.93,483.36 784.44,483.36C784.98,483.36 785.52,483.36 786.06,483.29C794.21,482.56 800.61,476.61 804.54,471.74C806.54,469.27 808.35,466.6 810.1,464.03C814.468,456.914 820.149,450.694 826.84,445.7C829.13,443.8 831.5,441.84 833.69,439.76C840.23,433.53 843.69,427.17 843.88,420.87C844.37,408.29 831.5,398.62 819.31,396.88ZM842.92,420.83C842.71,426.83 839.38,432.99 833.04,439.03C830.88,441.1 828.52,443.03 826.24,444.93C822.885,447.567 819.724,450.441 816.78,453.53C814.06,456.66 811.564,459.979 809.31,463.46C807.57,466.02 805.77,468.67 803.8,471.11C799.99,475.83 793.8,481.6 786.01,482.29C779.35,482.89 772.01,479.56 765.93,473.19C762.764,469.708 759.872,465.987 757.28,462.06C755.62,459.67 753.9,457.2 752.06,454.87C741.032,441.211 725.634,431.768 708.46,428.13C705.452,427.652 702.404,427.468 699.36,427.58L698.67,427.58C693.17,427.58 686.94,427.58 684.02,425.58C682.023,424.33 680.928,422.039 681.21,419.7C681.57,415.11 685.76,410.09 689.28,408.45C695.46,405.59 702.64,406.31 709.59,407.01L710.91,407.14C734.893,409.511 759.102,407.991 782.6,402.64C784.44,402.22 786.283,401.783 788.13,401.33C798.3,398.89 808.82,396.33 819.13,397.84C830.93,399.55 843.35,408.81 842.92,420.83Z" style="fill-rule:nonzero;"/>
                                    </g>
                                    <g id="Path17" serif:id="Path" transform="matrix(0.79961,0,0,0.79961,0.35797,0.465247)">
                                        <path d="M1195.15,663.28C1187.55,660.367 1179.97,656.83 1172.62,653.48C1157.17,646.48 1141.19,639.15 1124.36,635.8C1101.49,631.26 1080.78,613.69 1062.78,583.59C1059.01,577.28 1055.41,570.7 1051.92,564.32C1042.26,546.64 1032.26,528.32 1017.57,514.02C995.03,492.02 963.94,481.39 933.88,471.14C927.81,469.07 921.53,466.93 915.46,464.74C910.36,462.9 905.46,460.97 901.8,457.6C898.39,454.48 895.67,449.13 897.3,444.21C898.93,439.29 904.52,436.4 909.3,435.84C914.3,435.25 919.44,436.44 924.38,437.59L925.07,437.75C989.479,452.638 1056.6,451.042 1120.23,433.11C1141.38,427.11 1165.73,421.46 1186.93,429.89C1204.63,436.89 1219.79,449.14 1234.44,460.95C1237.27,463.23 1240.09,465.51 1242.93,467.75C1253.87,476.37 1269.01,478.51 1280.96,477.662L1280.96,476.384C1270.67,477.096 1254.32,475.46 1243.55,467C1240.71,464.77 1237.89,462.49 1235.07,460.22C1220.36,448.36 1205.14,436.1 1187.3,429.01C1165.81,420.46 1141.3,426.17 1119.96,432.19C1056.49,450.074 989.544,451.667 925.3,436.82L924.61,436.66C919.61,435.49 914.38,434.29 909.18,434.89C904.45,435.44 898.25,438.14 896.34,443.89C894.79,448.58 896.66,454.25 901.11,458.33C904.93,461.82 909.91,463.79 915.11,465.67C921.19,467.86 927.47,470.01 933.55,472.08C963.55,482.29 994.48,492.85 1016.87,514.72C1031.44,528.96 1041.4,547.17 1051.04,564.79C1054.53,571.17 1058.13,577.79 1061.91,584.09C1080.06,614.45 1101,632.17 1124.15,636.77C1140.87,640.1 1156.8,647.36 1172.15,654.38C1179.51,657.73 1187.37,661.431 1194.94,664.431C1201.49,667.481 1197.81,664.947 1197.81,664.947C1197.81,664.947 1202.18,665.972 1195.15,663.28Z" style="fill-rule:nonzero;"/>
                                    </g>
                                    <g id="Path18" serif:id="Path" transform="matrix(0.79961,0,0,0.79961,0.52329,0.952023)">
                                        <path d="M1240.17,70.56C1238.68,72.41 1237.17,74.3 1235.71,76.2C1226.1,88.47 1216.16,101.2 1201.77,107.08C1180.21,115.97 1156.2,108.8 1143.77,103.74C1125.77,96.4 1102.86,99.12 1080.77,111.2C1067.4,118.53 1055.43,128.31 1043.85,137.77C1038.96,141.77 1033.85,145.9 1028.85,149.77C1015.23,160.17 994.37,174.17 970.62,175.62C957.41,176.43 944.22,173.31 931.47,170.31C923.89,168.52 916.04,166.67 908.23,165.64C882.451,162.265 856.284,167.616 833.9,180.84C828.15,184.26 822.55,188.27 817.13,192.15C805.13,200.71 792.79,209.57 778.23,212.35C763.67,215.13 749.06,211.57 734.79,208.15C729.68,206.93 724.39,205.66 719.19,204.7C693.8,200 668.55,202.76 648.07,212.45C625.07,223.33 608.15,243.11 602.77,265.37C599.61,278.46 602.61,294.1 614.46,298.68C620.05,300.84 626.12,299.95 631.99,299.08C634.967,298.581 637.973,298.27 640.99,298.15C649.6,297.98 657.85,301.15 665.84,304.22C669.41,305.58 673.09,307 676.77,308.11C708.58,317.69 742.24,306.11 771.94,295.88C803.4,285.05 836.6,275.37 866.49,286C881.49,291.35 894.57,301.59 907.19,311.49C923,323.89 939.35,336.72 959.48,339.58C978.42,342.26 997.29,335.52 1013.26,328.58C1016.26,327.26 1019.26,325.9 1022.26,324.58C1035.87,318.45 1049.95,312.1 1064.87,309.82C1085.27,306.71 1104.72,312.99 1114.41,325.82C1130.06,346.58 1156.13,359.02 1189.8,361.82C1194.69,362.22 1201.03,362.622 1206.11,362.879C1226.87,363.928 1254.88,363.482 1280.03,355.282L1280.05,354.282C1249.59,364.282 1217.5,363.09 1189.85,360.84C1156.47,358.1 1130.65,345.84 1115.18,325.26C1105.27,312.12 1085.45,305.68 1064.69,308.85C1049.63,311.16 1035.49,317.53 1021.82,323.69C1018.82,325.05 1015.82,326.41 1012.82,327.69C996.98,334.59 978.27,341.28 959.58,338.63C939.71,335.81 923.47,323.06 907.76,310.74C895.08,300.79 881.97,290.51 866.76,285.1C836.58,274.36 803.18,284.1 771.56,294.98C742,305.14 708.54,316.67 677,307.18C673.35,306.08 669.69,304.67 666.14,303.31C658.06,300.21 649.69,297.02 640.92,297.18C637.87,297.299 634.83,297.613 631.82,298.12C625.82,299.01 620.14,299.84 614.82,297.78C603.51,293.41 600.68,278.3 603.74,265.64C609.05,243.64 625.74,224.13 648.5,213.38C668.79,203.78 693.83,201.06 719.01,205.71C724.18,206.71 729.46,207.93 734.56,209.15C748.93,212.6 763.8,216.15 778.42,213.37C793.2,210.54 805.66,201.62 817.71,192.99C823.11,189.13 828.71,185.13 834.41,181.73C856.601,168.618 882.543,163.313 908.1,166.66C915.86,167.66 923.68,169.53 931.24,171.31C944.06,174.31 957.32,177.46 970.68,176.65C994.68,175.18 1015.68,161.08 1029.46,150.59C1034.56,146.69 1039.63,142.59 1044.53,138.59C1056.07,129.15 1068,119.4 1081.29,112.12C1103.09,100.18 1125.73,97.48 1143.41,104.7C1155.94,109.82 1180.24,117.07 1202.13,108.05C1216.76,102.05 1226.78,89.23 1236.48,76.86C1237.96,74.96 1239.44,73.08 1240.93,71.22C1254.21,54.66 1267.33,46.596 1279.93,44.09L1279.93,43.06C1266.95,45.448 1253.67,53.73 1240.17,70.56Z" style="fill-rule:nonzero;"/>
                                    </g>
                                    <g id="Path19" serif:id="Path" transform="matrix(0.79961,0,0,0.79961,0.499455,0.752121)">
                                        <path d="M1261.8,114.85C1250.73,128.61 1240.27,141.61 1224.34,147.61C1210.84,152.7 1195.8,149.5 1181.26,146.41C1172.55,144.56 1163.54,142.65 1154.84,142.47C1111.08,141.62 1072.37,142.64 1041.61,164.02C1036.75,167.4 1032.17,171.29 1027.73,175.02C1021.73,180.13 1015.49,185.41 1008.54,189.42C983.11,204.11 951.17,200.83 920.64,196.21C892.64,191.97 857.89,186.71 830.9,202.77C825.641,206.07 820.628,209.746 815.9,213.77C811.095,217.862 805.99,221.589 800.63,224.92C786.04,233.46 767.31,236.7 741.7,235.13C735.49,234.74 729.19,234.13 723.09,233.56C709.2,232.23 694.84,230.85 680.71,232C667.13,233.09 657.83,237.6 653.81,245C650.47,251.19 650.99,259.43 655.17,266.51C665.35,283.73 688.84,286.39 710.47,286.72C733.79,287.08 757.91,287.45 781,281.67C791.14,279.14 801.07,275.4 810.66,271.78C816.96,269.41 823.47,266.96 829.98,264.87C849.98,258.44 866.61,257.1 880.68,260.78C891.9,263.72 901.95,269.96 911.68,275.99C917.896,280.058 924.347,283.755 931,287.06C963.71,302.3 1002.61,297.34 1039.78,289.7L1046.93,288.22C1080.7,281.22 1115.63,273.95 1148.74,282.71L1150.48,283.17C1162.81,286.43 1175.56,289.79 1185.08,297.57C1188.95,300.73 1192.01,305.099 1196.26,307.57C1203.74,311.915 1221.97,312.196 1227.86,312.19C1245.17,312.171 1269.21,310.06 1280,303.734L1280,302.511C1260.75,313.711 1204.43,314.29 1194.38,305.19C1190.72,301.87 1189.64,299.95 1185.74,296.76C1176.05,288.85 1163.2,285.46 1150.74,282.18L1149,281.72C1115.67,272.89 1080.62,280.17 1046.74,287.21L1039.59,288.69C1002.59,296.29 963.88,301.24 931.43,286.13C924.802,282.87 918.371,279.224 912.17,275.21C902.39,269.14 892.27,262.86 880.92,259.89C866.65,256.15 849.92,257.49 829.65,263.99C823.12,266.08 816.65,268.54 810.29,270.92C800.72,274.52 790.82,278.25 780.74,280.77C757.74,286.51 733.74,286.15 710.47,285.77C689.13,285.48 666,282.88 656,266.06C652,259.28 651.48,251.42 654.66,245.54C659.52,236.54 671.54,233.76 680.76,233.01C694.76,231.88 709.12,233.25 722.96,234.57C729.07,235.16 735.39,235.76 741.6,236.14C767.43,237.73 786.33,234.45 801.1,225.8C806.51,222.448 811.658,218.691 816.5,214.56C821.192,210.569 826.165,206.919 831.38,203.64C858.06,187.76 892.66,193 920.46,197.21C951.17,201.86 983.3,205.15 1009.01,190.3C1016.01,186.24 1022.3,180.93 1028.35,175.79C1032.77,172.04 1037.35,168.17 1042.16,164.79C1072.66,143.59 1111.16,142.57 1154.79,143.42C1163.39,143.59 1172.35,145.5 1181.02,147.34C1195.7,150.46 1210.89,153.69 1224.66,148.5C1240.85,142.4 1251.88,128.69 1262.55,115.42C1268.02,108.62 1274.98,102.315 1281.48,100.268L1281.25,99.309C1273.35,102.051 1267.49,107.77 1261.8,114.85Z" style="fill-rule:nonzero;"/>
                                    </g>
                                    <g id="Path20" serif:id="Path" transform="matrix(0.79961,0,0,0.79961,0.738844,0.912043)">
                                        <path d="M1138.92,79.06C1145.92,83.87 1155.31,86.46 1165.92,86.53L1166.41,86.53C1191.69,86.53 1217.41,72.95 1236.97,49.2C1249.19,34.39 1258.83,16.179 1266.48,-1.141L1265.14,-1.141C1257.58,15.969 1248.25,33.96 1236.2,48.57C1216.97,71.88 1190.71,85.74 1165.93,85.57C1155.52,85.5 1146.38,82.97 1139.49,78.27C1126.3,69.27 1119.9,51.16 1123.18,32.11C1125.12,20.81 1129.98,7.609 1135.52,-2.391L1134.38,-2.391C1128.9,7.519 1124.12,20.65 1122.19,31.9C1118.84,51.28 1125.41,69.79 1138.92,79.06Z" style="fill-rule:nonzero;"/>
                                    </g>
                                    <g transform="matrix(1,0,0,1,-2881.57,-1.21713)">
                                        <path d="M2777.53,1001.12C2781.06,994.657 2807.26,897.963 2876.37,871.884C2945.47,845.806 2945.47,828.855 2949.39,791.041" style="fill:none;stroke:black;stroke-width:1px;"/>
                                    </g>
                                    <g transform="matrix(1,0,0,1,-1857.99,-1)">
                                        <path d="M1925.81,790.824C1927.47,771.654 1944.32,757.514 1959.89,748.016C1976.93,737.621 2006.66,729 2028.06,728.457C2048.84,727.929 2072.96,730.678 2088.26,744.756C2108.05,762.956 2137.9,802.153 2146.74,837.66C2156.49,876.777 2135.3,924.251 2135.3,955.141C2135.3,969.654 2152.32,1011.22 2141.13,1025.16" style="fill:none;stroke:black;stroke-width:1px;"/>
                                    </g>
                                    <g transform="matrix(1.01863,-0.0176195,-0.0176195,1.01666,10.0734,-6.13477)">
                                        <path d="M25.259,414.061C58.495,390.11 83.521,383.183 94.578,420.79C101.088,442.93 122.935,455.646 106.657,494.77C91.157,532.024 39.771,533.46 15.008,531.301C-9.754,529.141 -57.239,503.831 -83.403,460.671C-109.566,417.51 -67.595,403.534 -31.865,432.195C3.866,460.857 -0.832,432.863 25.259,414.061Z" style="fill:none;stroke:black;stroke-width:1px;"/>
                                    </g>
                                    <g transform="matrix(1,0,0,1,-2242,0)">
                                        <path d="M2297.83,418.795C2277.16,423.057 2268.49,428.696 2255,447C2241.51,465.304 2229.74,462.883 2212,457C2184.36,447.832 2169.57,450.484 2177,467.378C2184.43,484.272 2208.26,495.03 2224,504C2238.62,512.335 2270.84,524.085 2295,516C2319.74,507.72 2321.72,498.03 2327.1,483C2332.49,467.97 2331.01,462.03 2327,444C2322.99,425.97 2314.42,415.374 2297.83,418.795Z" style="fill:none;stroke:black;stroke-width:1px;"/>
                                    </g>
                                    <g transform="matrix(1.01863,-0.0176195,-0.0176195,1.01666,1034.07,-7.13477)">
                                        <path d="M25.259,414.061C58.495,390.11 83.521,383.183 94.578,420.79C101.088,442.93 122.935,455.646 106.657,494.77C91.157,532.024 39.771,533.46 15.008,531.301C-9.754,529.141 -57.239,503.831 -83.403,460.671C-109.566,417.51 -67.595,403.534 -31.865,432.195C3.866,460.857 -0.832,432.863 25.259,414.061Z" style="fill:none;stroke:black;stroke-width:1px;"/>
                                    </g>
                                    <g transform="matrix(1,0,0,1,-1218,-1)">
                                        <path d="M2297.83,418.795C2277.16,423.057 2268.49,428.696 2255,447C2241.51,465.304 2229.74,462.883 2212,457C2184.36,447.832 2169.57,450.484 2177,467.378C2184.43,484.272 2208.26,495.03 2224,504C2238.62,512.335 2270.84,524.085 2295,516C2319.74,507.72 2321.72,498.03 2327.1,483C2332.49,467.97 2331.01,462.03 2327,444C2322.99,425.97 2314.42,415.374 2297.83,418.795Z" style="fill:none;stroke:black;stroke-width:1px;"/>
                                    </g>
                                    <g transform="matrix(1,0,0,1,-1218,-1)">
                                        <path d="M2133.49,364.052C2116.66,364.928 2058.96,391.318 2104.2,419.13C2155.73,450.817 2094.09,483.308 2166.49,507.108C2238.89,530.908 2218.64,561.458 2278.24,563.058C2337.84,564.658 2369.05,530.916 2387.8,501.688C2406.55,472.459 2429.89,424.852 2370.3,402.146C2326.93,385.617 2316.8,335.01 2255.93,401.521C2222.18,438.396 2200.61,384.959 2180.61,375.896C2160.61,366.834 2154.66,362.951 2133.49,364.052Z" style="fill:none;stroke:black;stroke-width:1px;"/>
                                    </g>
                                    <g transform="matrix(1,0,0,1,-2242,0)">
                                        <path d="M2133.49,364.052C2116.66,364.928 2058.96,391.318 2104.2,419.13C2155.73,450.817 2094.09,483.308 2166.49,507.108C2238.89,530.908 2218.64,561.458 2278.24,563.058C2337.84,564.658 2369.05,530.916 2387.8,501.688C2406.55,472.459 2429.89,424.852 2370.3,402.146C2326.93,385.617 2316.8,335.01 2255.93,401.521C2222.18,438.396 2200.61,384.959 2180.61,375.896C2160.61,366.834 2154.66,362.951 2133.49,364.052Z" style="fill:none;stroke:black;stroke-width:1px;"/>
                                    </g>
                                    <g transform="matrix(1,0,0,1,-2242,0)">
                                        <path d="M2241.85,124.747C2260.13,125.873 2281.56,125.147 2281.16,163.147C2280.76,201.147 2289.91,206.405 2241.85,223.449C2183.44,244.16 2205.18,207.685 2150.14,204.516C2111.15,202.272 2084.12,202.381 2069.3,207.895C2041.05,218.404 1956.21,219.882 1969.92,188.03C1976.88,171.851 2009.44,192.74 2035.45,173.284C2051.19,161.514 2065.73,138.582 2114.34,143.134C2118.99,143.569 2123.95,144.256 2129.25,145.227C2209.74,159.972 2209.98,122.784 2241.85,124.747Z" style="fill:none;stroke:black;stroke-width:1px;"/>
                                    </g>
                                    <g transform="matrix(1,0,0,1,-1218,-1)">
                                        <path d="M2241.85,124.747C2260.13,125.873 2281.56,125.147 2281.16,163.147C2280.76,201.147 2289.91,206.405 2241.85,223.449C2183.44,244.16 2205.18,207.685 2150.14,204.516C2111.15,202.272 2084.12,202.381 2069.3,207.895C2041.05,218.404 1956.21,219.882 1969.92,188.03C1976.88,171.851 2009.44,192.74 2035.45,173.284C2051.19,161.514 2065.73,138.582 2114.34,143.134C2118.99,143.569 2123.95,144.256 2129.25,145.227C2209.74,159.972 2209.98,122.784 2241.85,124.747Z" style="fill:none;stroke:black;stroke-width:1px;"/>
                                    </g>
                                    <g transform="matrix(0.571804,-0.433437,0.52199,0.688626,-1348.58,1133.98)">
                                        <path d="M2398.86,249.233C2385.76,248.66 2399.93,270.693 2390.77,281.851C2370.93,306.024 2460.17,298.107 2441.04,281.848C2418.96,263.077 2411.96,249.805 2398.86,249.233Z" style="fill:none;stroke:black;stroke-width:1.26px;"/>
                                    </g>
                                    <g transform="matrix(1,0,0,1,-2241.81,0.0483069)">
                                        <path d="M2673.15,-28.589C2673.15,-28.589 2661.7,-17.517 2635.74,8.061C2609.78,33.64 2586.79,21.219 2581.14,78.313C2577.33,116.879 2605.73,136.049 2559.71,184.818C2540.18,205.511 2535.68,208.836 2521.93,231.153C2516.19,240.462 2500.4,250.665 2492.82,258.372C2484.24,267.09 2467.97,284.96 2457.57,299.533C2447.17,314.092 2440.14,328.785 2430.4,345.812C2423.13,358.537 2407.97,372.225 2393.06,370.799C2377.85,369.344 2354.39,343.844 2339.16,337.083C2327.54,331.928 2314.19,328.167 2301.65,330.233C2288.83,332.345 2272.3,346.887 2262.28,349.753C2255.58,351.669 2246.19,348.845 2241.5,347.433" style="fill:none;stroke:black;stroke-width:1px;"/>
                                    </g>
                                    <g transform="matrix(1,0,0,1,-1218,-1)">
                                        <path d="M2223.38,158.056C2214.19,158.212 2183.73,160.186 2186.51,177.225C2189.3,194.264 2216.66,210.484 2236.97,199.343C2257.29,188.202 2247.35,157.646 2223.38,158.056Z" style="fill:none;stroke:black;stroke-width:1px;"/>
                                    </g>
                                    <g transform="matrix(1,0,0,1,-1857.99,-1)">
                                        <path d="M1850.34,40.08C1857.87,38.031 1859.54,35.528 1874.64,37.625C1889.74,39.722 1925.81,50.627 1935.88,113.541C1945.94,176.455 1980.97,185.89 1999.9,214.036C2012.99,233.492 2043.5,229.694 2057.18,218.677C2075.58,203.847 2070.09,194.683 2094,181.763C2121.68,166.808 2145.59,188.511 2164.76,148.666C2171.41,134.851 2166.14,129.479 2168.24,88.376C2170.34,47.272 2170.34,38.044 2197.6,7.846C2224.86,-22.353 2267.64,-38.291 2267.64,-38.291" style="fill:none;stroke:black;stroke-width:1px;"/>
                                    </g>
                                    <g transform="matrix(1,0,0,1,-2241.81,1024.05)">
                                        <path d="M2673.15,-28.589C2673.15,-28.589 2661.7,-17.517 2635.74,8.061C2609.78,33.64 2586.79,21.219 2581.14,78.313C2577.33,116.879 2605.73,136.049 2559.71,184.818C2540.18,205.511 2535.68,208.836 2521.93,231.153C2516.19,240.462 2500.4,250.665 2492.82,258.372C2484.24,267.09 2467.97,284.96 2457.57,299.533C2447.17,314.092 2440.14,328.785 2430.4,345.812C2423.13,358.537 2407.97,372.225 2393.06,370.799C2377.85,369.344 2354.39,343.844 2339.16,337.083C2327.54,331.928 2314.19,328.167 2301.65,330.233C2288.83,332.345 2272.3,346.887 2262.28,349.753C2255.58,351.669 2246.19,348.845 2241.5,347.433" style="fill:none;stroke:black;stroke-width:1px;"/>
                                    </g>
                                    <g transform="matrix(1,0,0,1,-1857.99,1023)">
                                        <path d="M1850.34,40.08C1857.87,38.031 1859.54,35.528 1874.64,37.625C1889.74,39.722 1925.81,50.627 1935.88,113.541C1945.94,176.455 1980.97,185.89 1999.9,214.036C2012.99,233.492 2043.5,229.694 2057.18,218.677C2075.58,203.847 2070.09,194.683 2094,181.763C2121.68,166.808 2145.59,188.511 2164.76,148.666C2171.41,134.851 2166.14,129.479 2168.24,88.376C2170.34,47.272 2170.34,38.044 2197.6,7.846C2224.86,-22.353 2267.64,-38.291 2267.64,-38.291" style="fill:none;stroke:black;stroke-width:1px;"/>
                                    </g>
                                    <g transform="matrix(1,0,0,1,-2242,0)">
                                        <path d="M2223.38,158.056C2214.19,158.212 2183.73,160.186 2186.51,177.225C2189.3,194.264 2216.66,210.484 2236.97,199.343C2257.29,188.202 2247.35,157.646 2223.38,158.056Z" style="fill:none;stroke:black;stroke-width:1px;"/>
                                    </g>
                                    <g transform="matrix(1,0,0,1,-2881.99,0)">
                                        <path d="M2937.4,1024.83C2937.4,1024.83 2929.29,1020.04 2925.11,1017.73C2920.93,1015.42 2907.91,1008.73 2888.28,1011.8C2884.86,1012.33 2876.78,1013.47 2870.06,1026.53" style="fill:none;stroke:black;stroke-width:1px;"/>
                                    </g>
                                    <g transform="matrix(1,0,0,1,-1854.86,4.38167)">
                                        <path d="M2902.38,896.383C2888.69,888.03 2859.93,908.268 2845.01,923.195C2829.79,938.407 2815.6,947.137 2806.91,968.964C2798.4,990.319 2770.08,1031.36 2785.98,1049.96C2790.78,1055.57 2826.29,1043.51 2834.8,1015.17C2840.32,996.78 2855.29,990.681 2870.93,981.9C2884.24,974.427 2923.72,987.439 2927.11,973.314C2930.51,959.188 2916.06,904.736 2902.38,896.383Z" style="fill:none;stroke:black;stroke-width:1px;"/>
                                    </g>
                                    <g transform="matrix(1,0,0,1,-1854.86,-1019.62)">
                                        <path d="M2902.38,896.383C2888.69,888.03 2859.93,908.268 2845.01,923.195C2829.79,938.407 2815.6,947.137 2806.91,968.964C2798.4,990.319 2770.08,1031.36 2785.98,1049.96C2790.78,1055.57 2826.29,1043.51 2834.8,1015.17C2840.32,996.78 2855.29,990.681 2870.93,981.9C2884.24,974.427 2923.72,987.439 2927.11,973.314C2930.51,959.188 2916.06,904.736 2902.38,896.383Z" style="fill:none;stroke:black;stroke-width:1px;"/>
                                    </g>
                                    <g transform="matrix(1,0,0,1,-1858.12,-1.21713)">
                                        <path d="M2765.87,1025.22C2765.87,1025.22 2774,1007.59 2777.53,1001.12C2781.06,994.657 2806.59,897.459 2875.7,871.381C2944.8,845.302 2945.47,828.855 2949.39,791.041" style="fill:none;stroke:black;stroke-width:1px;"/>
                                    </g>
                                    <g transform="matrix(1,0,0,1,-1857.99,-1)">
                                        <path d="M2935.01,1023.4C2935.01,1023.4 2929.29,1020.04 2925.11,1017.73C2920.93,1015.42 2907.91,1008.73 2888.28,1011.8C2884.86,1012.33 2876.78,1013.47 2870.06,1026.53" style="fill:none;stroke:black;stroke-width:1px;"/>
                                    </g>
                                    <g transform="matrix(1,0,0,1,-1856.36,0.891196)">
                                        <path d="M2180.35,615.725C2181.37,627.992 2183.1,642.034 2197.19,658.811C2211.28,675.588 2222.69,667.871 2237.12,677.937C2251.55,688.003 2274.03,680.286 2267.99,654.449C2261.95,628.613 2260.99,610.767 2241.34,596.886C2221.69,583.005 2200.11,579.019 2191.04,585.204C2181.97,591.389 2179.45,604.982 2180.35,615.725Z" style="fill:none;stroke:black;stroke-width:1px;"/>
                                    </g>
                                    <g transform="matrix(1,0,0,1,-1857.99,-1)">
                                        <path d="M2495.17,616.06C2494.8,620.591 2490.41,632.881 2487.19,640.012C2483.96,647.143 2455.98,710.121 2511.72,682.634C2567.46,655.146 2572.76,637.401 2571.78,622.741C2570.8,608.081 2559.81,586.58 2535.13,577.296C2510.45,568.011 2470.8,558.338 2476,580.472C2479.92,597.146 2496.42,600.749 2495.17,616.06Z" style="fill:none;stroke:black;stroke-width:1px;"/>
                                    </g>
                                    <g transform="matrix(1,0,0,1,-1857.99,-1025)">
                                        <path d="M2539.26,1012.71C2539.26,1012.71 2539.01,1040.47 2527.01,1054.23C2515,1067.99 2513.5,1070.99 2492.24,1080.99C2470.98,1090.99 2453.23,1104.75 2463.48,1115.75C2473.74,1126.76 2485.49,1116.25 2515.25,1084.74C2545.01,1053.23 2599.28,1058.73 2620.29,1071.24C2641.3,1083.74 2678.57,1082.49 2664.31,1025.47C2650.05,968.446 2618.79,957.692 2633.55,905.921C2648.3,854.151 2587.77,803.133 2569.46,855.034C2551.14,906.934 2537.7,919.757 2540.15,954.56C2542.59,989.364 2539.26,1012.71 2539.26,1012.71Z" style="fill:none;stroke:black;stroke-width:1px;"/>
                                    </g>
                                    <g transform="matrix(1,0,0,1,-1857.99,-1)">
                                        <path d="M2462.05,611.468C2462.05,611.468 2469.05,624.473 2462.45,645.081C2455.85,665.689 2447.1,775.289 2515.48,729.495C2583.87,683.701 2596.69,655.003 2594.86,615.925C2593.03,576.847 2547.84,548.76 2509.38,545.096C2470.91,541.432 2428.78,549.981 2401.3,526.778C2373.83,503.576 2375.57,493.721 2367.17,500.524C2358.77,507.326 2375.77,530.936 2386.18,539.339C2396.58,547.742 2428.39,555.345 2443.4,576.754C2458.41,598.162 2462.05,611.468 2462.05,611.468Z" style="fill:none;stroke:black;stroke-width:1px;"/>
                                    </g>
                                    <g transform="matrix(1,0,0,1,-1857.99,-1)">
                                        <path d="M2156.54,590.718C2155.48,610.233 2165.71,619.505 2170.4,642.014C2175.09,664.523 2182.49,685.693 2213.75,699.449C2245.01,713.204 2297.22,721.332 2299.41,696.635C2301.6,671.938 2298.47,669.437 2293.78,648.179C2289.09,626.92 2288.14,609.555 2270.02,592.532C2257.96,581.19 2246.89,574.399 2228.76,569.71C2210.62,565.021 2196.24,564.083 2183.74,531.883C2171.23,499.683 2164.92,503.684 2161.86,506.56C2151.69,516.103 2172.84,532.634 2164.37,559.431C2160.98,570.148 2157.04,581.54 2156.54,590.718Z" style="fill:none;stroke:black;stroke-width:1px;"/>
                                    </g>
                                    <g transform="matrix(1,0,0,1,-1857.99,-1)">
                                        <path d="M2739.93,615.456C2739.93,615.456 2758.04,651.019 2797.12,664.452C2836.2,677.885 2803.22,704.141 2857.57,702.309C2911.91,700.477 2879.55,671.779 2925.95,654.683" style="fill:none;stroke:black;stroke-width:1px;"/>
                                    </g>
                                    <g transform="matrix(1,0,0,1,-2881.97,0.174806)">
                                        <path d="M2739.93,615.456C2739.93,615.456 2758.04,651.019 2797.12,664.452C2836.2,677.885 2802.83,704.057 2857.18,702.225C2911.52,700.393 2879.55,671.779 2925.95,654.683" style="fill:none;stroke:black;stroke-width:1px;"/>
                                    </g>
                                    <g transform="matrix(1,0,0,1,-1857.99,-1)">
                                        <path d="M2134.24,615.885C2134.24,615.885 2143.56,642.232 2149.42,661.283C2155.29,680.333 2167.99,704.268 2192.9,715.503C2217.81,726.738 2258.84,746.277 2293.03,743.346C2327.23,740.415 2336.02,731.623 2345.79,704.268C2355.56,676.914 2354.15,635.199 2331.61,615.951" style="fill:none;stroke:black;stroke-width:1px;"/>
                                    </g>
                                    <g transform="matrix(1,0,0,1,-1857.99,-1025)">
                                        <path d="M2586.54,936.454C2580.37,940.225 2567,944.269 2567.78,975.531C2568.57,1006.79 2571.69,1015.78 2595.14,1030.24C2618.59,1044.7 2640.05,1060.26 2638.45,1035.82C2636.85,1011.39 2633.24,1015.79 2620.02,992.96C2606.8,970.128 2605.2,971.329 2604.8,952.903C2604.4,934.477 2592.71,932.682 2586.54,936.454Z" style="fill:none;stroke:black;stroke-width:1px;"/>
                                    </g>
                                    <g transform="matrix(1,0,0,1,-1857.99,-1)">
                                        <path d="M2096.91,615.113C2096.91,615.113 2117.93,653.825 2130.44,683.868C2142.96,713.91 2166.12,735.19 2205.55,770.24C2244.98,805.289 2280.03,834.08 2316.96,810.922C2353.88,787.765 2373.91,790.894 2378.92,748.334C2383.93,705.774 2390.81,674.48 2387.68,648.818C2384.55,623.157 2380.64,615.188 2380.64,615.188" style="fill:none;stroke:black;stroke-width:1px;"/>
                                    </g>
                                    <g transform="matrix(1,0,0,1,-1858.95,-1023.37)">
                                        <path d="M1991.66,1024.86C1991.66,1024.86 1986.49,1009.71 1985.08,1004.94C1983.67,1000.17 1964.21,961.232 1952.47,927.591C1940.74,893.95 1942.06,871.826 1951.15,855.326C1964.61,830.916 1978.65,824.564 1993.27,823.341C2030.9,820.194 2038.28,823.21 2058.62,851.375C2078.96,879.54 2088.52,900.748 2079.6,932.521C2073.16,955.48 2075.59,965.716 2075.59,965.716C2075.59,965.716 2082.01,1003.91 2077.45,1024.79" style="fill:none;stroke:black;stroke-width:1px;"/>
                                    </g>
                                    <g transform="matrix(1,0,0,1,-1857.92,-0.969483)">
                                        <path d="M2881.51,580.166C2881.51,580.166 2867.27,574.634 2855.74,562.949C2844.22,551.265 2830.5,538.326 2816.1,533.204" style="fill:none;stroke:black;stroke-width:1px;"/>
                                    </g>
                                    <g transform="matrix(1,0,0,1,-1857.99,-1)">
                                        <path d="M1965.51,1025.45C1952.42,986.846 1932.35,938.118 1925.81,908.463C1921.34,888.244 1919.92,865.951 1925.81,846.344C1931.7,826.738 1942.73,800.077 1961.14,790.824C1979.56,781.57 2015.55,785.977 2036.28,790.824C2054.83,795.163 2072.48,805.974 2085.49,819.903C2098.69,834.053 2113.13,854.733 2115.53,875.729C2118.09,898.166 2103.41,929.401 2100.86,954.527C2098.99,973.026 2104.02,1005.18 2100.17,1025" style="fill:none;stroke:black;stroke-width:1px;"/>
                                    </g>
                                    <g transform="matrix(1.05168,-0.0166165,-0.0166165,1.00534,-3029.65,47.479)">
                                        <path d="M2932.92,652.598C2950.11,646.392 2979.9,687.848 3002.94,682.298C3030.78,675.589 3083.86,693.835 3112.01,694.872C3121.64,695.227 3143.63,683.09 3116.71,655.991C3092.65,631.764 3066.5,639.263 3055.7,615.055" style="fill:none;stroke:black;stroke-width:0.99px;"/>
                                    </g>
                                    <g transform="matrix(1,0,0,1,-1856.02,-1021.41)">
                                        <path d="M2673.56,612.423C2671.47,651.666 2717.49,654.324 2741.67,677.753C2762.49,697.932 2807.18,750.228 2807.18,779.225C2807.18,808.292 2775.64,854.49 2755.97,891.254C2738.42,924.06 2708.88,948.463 2700.61,973.58C2695.31,989.641 2701.39,1005.77 2701.39,1022.69" style="fill:none;stroke:black;stroke-width:1px;"/>
                                    </g>
                                    <g transform="matrix(1,0,0,1,-1859.56,0.418405)">
                                        <path d="M2671.41,673.524C2651.4,671.907 2641.37,694.653 2634.85,734.746C2631.38,756.051 2597.99,787.941 2632.98,820.056C2675.81,859.373 2655.78,919.123 2678.88,918.278C2724.2,916.62 2781.5,802.088 2766.55,772.176C2734.46,707.973 2711.28,676.746 2671.41,673.524Z" style="fill:none;stroke:black;stroke-width:1px;"/>
                                    </g>
                                    <g transform="matrix(1,0,0,1,-1859.56,0.418405)">
                                        <path d="M2673.44,748.898C2664.75,748.766 2659.87,769.267 2663.01,779.611C2666.62,791.471 2686.39,820.056 2695.08,820.056C2703.77,820.056 2718.77,791.471 2715.17,779.611C2711.56,767.752 2696.49,749.248 2673.44,748.898Z" style="fill:none;stroke:black;stroke-width:1px;"/>
                                    </g>
                                    <g transform="matrix(1,0,0,1,-1856.02,-1021.41)">
                                        <path d="M2616.14,612.173C2622.39,640.259 2621.85,679.292 2613.61,706.537C2605.54,733.191 2578.62,751.73 2566.67,775.645C2554.98,799.021 2542.28,835.211 2536.55,860.708C2528.29,897.459 2516.32,933.697 2518.18,963.035C2519.86,989.396 2509.33,1009.56 2509.17,1023.36" style="fill:none;stroke:black;stroke-width:1px;"/>
                                    </g>
                                    <g transform="matrix(1,0,0,1,-1858,-0.81508)">
                                        <path d="M2539.26,1012.71C2539.26,1012.71 2539.01,1040.47 2527.01,1054.23C2515,1067.99 2513.5,1070.99 2492.24,1080.99C2470.98,1090.99 2453.23,1104.75 2463.48,1115.75C2473.74,1126.76 2485.49,1116.25 2515.25,1084.74C2545.01,1053.23 2599.28,1058.73 2620.29,1071.24C2641.3,1083.74 2678.57,1082.49 2664.31,1025.47C2650.05,968.446 2618.79,957.692 2633.55,905.921C2648.3,854.151 2587.77,803.133 2569.46,855.034C2551.14,906.934 2537.7,919.757 2540.15,954.56C2542.59,989.364 2539.26,1012.71 2539.26,1012.71Z" style="fill:none;stroke:black;stroke-width:1px;"/>
                                    </g>
                                    <g transform="matrix(1,0,0,1,-1858,-0.81508)">
                                        <path d="M2586.54,936.454C2580.37,940.225 2567,944.269 2567.78,975.531C2568.57,1006.79 2571.69,1015.78 2595.14,1030.24C2618.59,1044.7 2640.05,1060.26 2638.45,1035.82C2636.85,1011.39 2633.24,1015.79 2620.02,992.96C2606.8,970.128 2605.2,971.329 2604.8,952.903C2604.4,934.477 2592.71,932.682 2586.54,936.454Z" style="fill:none;stroke:black;stroke-width:1px;"/>
                                    </g>
                                    <g transform="matrix(1,0,0,1,-1858.96,0.814798)">
                                        <path d="M1991.66,1024.86C1991.66,1024.86 1986.49,1009.71 1985.08,1004.94C1983.67,1000.17 1964.21,961.232 1952.47,927.591C1940.74,893.95 1942.06,871.826 1951.15,855.326C1964.61,830.916 1978.65,824.564 1993.27,823.341C2030.9,820.194 2038.28,823.21 2058.62,851.375C2078.96,879.54 2088.52,900.748 2079.6,932.521C2073.16,955.48 2075.59,965.716 2075.59,965.716C2075.59,965.716 2082.01,1003.91 2077.45,1024.79" style="fill:none;stroke:black;stroke-width:1px;"/>
                                    </g>
                                    <g transform="matrix(1,0,0,1,-1856.03,2.77421)">
                                        <path d="M2673.56,612.423C2671.47,651.666 2717.49,654.324 2741.67,677.753C2762.49,697.932 2807.18,750.228 2807.18,779.225C2807.18,808.292 2775.64,854.49 2755.97,891.254C2738.42,924.06 2708.88,948.463 2700.61,973.58C2695.31,989.641 2701.39,1005.77 2701.39,1022.69" style="fill:none;stroke:black;stroke-width:1px;"/>
                                    </g>
                                    <g transform="matrix(1,0,0,1,-1856.03,2.77421)">
                                        <path d="M2616.14,612.173C2622.39,640.259 2621.85,679.292 2613.61,706.537C2605.54,733.191 2578.62,751.73 2566.67,775.645C2554.98,799.021 2542.28,835.211 2536.55,860.708C2528.29,897.459 2516.32,933.697 2518.18,963.035C2519.86,989.396 2509.33,1009.56 2509.17,1023.36" style="fill:none;stroke:black;stroke-width:1px;"/>
                                    </g>
                                    <g transform="matrix(1,0,0,1,-1857.99,-1)">
                                        <path d="M2368.35,1026.49C2368.35,1026.49 2376.1,1004.65 2392.54,996.46C2411.69,986.919 2429.74,991.87 2439.48,996.46C2448.47,1000.7 2449.03,1013.91 2448.13,1025" style="fill:none;stroke:black;stroke-width:1px;"/>
                                    </g>
                                    <g transform="matrix(1,0,0,1,-1857.99,-1)">
                                        <path d="M2325.33,1025C2332.39,1012.7 2341.59,1004.52 2351.55,996.46C2363.03,987.179 2384.34,982.415 2393.58,968.315C2403.95,952.497 2404.59,922.915 2413.77,901.554C2423.33,879.301 2440.58,840.705 2450.95,834.794C2461.32,828.883 2473.49,841.338 2477.36,854.124C2481.35,867.337 2470.6,890.887 2463.42,905.185C2455.54,920.891 2443.72,944.135 2452.6,968.185C2462.44,994.821 2462.38,1008.94 2463.03,1024.51" style="fill:none;stroke:black;stroke-width:1px;"/>
                                    </g>
                                    <g transform="matrix(1,0,0,1,-1857.99,-1)">
                                        <path d="M2289.23,996.46C2302.92,983.006 2330.14,976.112 2343.68,965.018C2355.25,955.526 2366.8,944.053 2371.68,929.897C2379.15,908.193 2381.92,857.453 2388.53,834.794C2392.89,819.826 2399.09,803.617 2411.31,793.944C2423.66,784.18 2447.96,773.429 2462.59,776.211C2477.22,778.993 2490.66,796.192 2499.1,810.634C2508.14,826.107 2507.15,837.177 2507.86,857.514C2508.73,882.201 2492.25,913.707 2488.08,939.532C2484.55,961.392 2490.35,1001.93 2489.76,1024" style="fill:none;stroke:black;stroke-width:1px;"/>
                                    </g>
                                    <g transform="matrix(1,0,0,1,-1857.99,-1)">
                                        <path d="M2414.49,615.762C2419.11,641.324 2410.67,674.876 2412.79,696.098C2414.41,712.405 2412.11,742.261 2427.21,743.098C2445.74,744.125 2439.45,725.042 2437.07,705.813C2435.12,690.095 2438.93,676.563 2438.96,661.917C2438.98,646.964 2440.71,633.943 2437.22,616.092" style="fill:none;stroke:black;stroke-width:1px;"/>
                                    </g>
                                    <g transform="matrix(1,0,0,1,-1857.99,-1)">
                                        <path d="M2009.26,871.788C1999.24,868.626 1977.32,870.627 1972.54,881.135C1967.75,891.642 1976.02,917.311 1980.55,934.834C1985.78,955.084 1996.13,987.611 2003.91,1002.64C2008.88,1012.21 2020.38,1024.04 2027.28,1023.59C2034.18,1023.15 2043.66,1010.12 2045.31,999.968C2047.09,989.009 2039.7,972.928 2037.96,959.244C2035.85,942.601 2037.41,914.682 2032.62,900.106C2028.81,888.478 2019.27,874.95 2009.26,871.788Z" style="fill:none;stroke:black;stroke-width:1px;"/>
                                    </g>
                                    <g id="Path21" serif:id="Path" transform="matrix(0.79961,0,0,0.79961,0.733364,1025.1)">
                                        <path d="M1138.92,79.06C1145.92,83.87 1155.31,86.46 1165.92,86.53L1166.41,86.53C1191.69,86.53 1217.41,72.95 1236.97,49.2C1249.19,34.39 1258.31,16.61 1265.96,-0.71L1264.87,-0.71C1257.31,16.4 1248.25,33.96 1236.2,48.57C1216.97,71.88 1190.71,85.74 1165.93,85.57C1155.52,85.5 1146.38,82.97 1139.49,78.27C1126.3,69.27 1119.9,51.16 1123.18,32.11C1125.12,20.81 1129.98,7.378 1135.52,-2.622L1134.38,-2.622C1128.9,7.288 1124.12,20.65 1122.19,31.9C1118.84,51.28 1125.41,69.79 1138.92,79.06Z" style="fill-rule:nonzero;"/>
                                    </g>
                                </g>
                            </g>
                        </g>
                    </g>
                </g>
            </g>
        </g>
    </g>
</svg>
