<?xml version="1.0" encoding="UTF-8" standalone="no"?>
<!DOCTYPE svg PUBLIC "-//W3C//DTD SVG 1.1//EN" "http://www.w3.org/Graphics/SVG/1.1/DTD/svg11.dtd">
<svg width="100%" height="100%" viewBox="0 0 1783 550" version="1.1" xmlns="http://www.w3.org/2000/svg" xmlns:xlink="http://www.w3.org/1999/xlink" xml:space="preserve" xmlns:serif="http://www.serif.com/" style="fill-rule:evenodd;clip-rule:evenodd;stroke-linejoin:round;stroke-miterlimit:2;">
    <g transform="matrix(2.66321,0,0,2.66321,-329.216,-406.236)">
        <g>
            <g>
                <g transform="matrix(0.55143,0,0,0.55143,-40.5859,68.4119)">
                    <path d="M333.879,438.112L297.775,438.112L297.775,391.891L474.436,200.345L305.217,200.345L305.217,189.451C305.217,189.451 324.825,152.556 366.781,152.556L556.694,152.556L556.694,198.386L379.25,390.324L379.254,390.324L333.879,438.112ZM457.195,390.324L563.745,390.324L563.745,401.377C563.745,401.377 544.292,438.112 499.829,438.112L411.82,438.112L457.195,390.324Z" style="fill:white;fill-rule:nonzero;"/>
                </g>
                <g transform="matrix(216,0,0,216,270.496,310)">
                    <path d="M0.024,0.167L0.024,0.057L0.28,0.057L0.28,-0.074L0.01,-0.532L0.164,-0.532L0.325,-0.238L0.347,-0.194L0.354,-0.194L0.376,-0.238L0.541,-0.532L0.696,-0.532L0.426,-0.074L0.426,0.052C0.426,0.091 0.414,0.12 0.391,0.139C0.368,0.158 0.337,0.167 0.298,0.167L0.024,0.167Z" style="fill:white;fill-rule:nonzero;"/>
                </g>
                <g transform="matrix(216,0,0,216,415,310)">
                    <path d="M0.284,0.01C0.23,0.01 0.185,-0.001 0.148,-0.023C0.111,-0.045 0.083,-0.076 0.064,-0.116C0.045,-0.156 0.035,-0.202 0.035,-0.255L0.035,-0.277C0.035,-0.319 0.041,-0.356 0.053,-0.389C0.065,-0.422 0.082,-0.45 0.105,-0.473C0.127,-0.496 0.154,-0.513 0.185,-0.525C0.216,-0.536 0.251,-0.542 0.29,-0.542C0.335,-0.542 0.375,-0.534 0.409,-0.518C0.443,-0.501 0.467,-0.479 0.481,-0.45L0.489,-0.45L0.489,-0.729L0.635,-0.729L0.635,-0L0.496,-0L0.489,-0.082L0.481,-0.082C0.466,-0.054 0.441,-0.032 0.406,-0.015C0.371,0.002 0.33,0.01 0.284,0.01ZM0.333,-0.099C0.382,-0.099 0.419,-0.112 0.446,-0.137C0.473,-0.162 0.486,-0.195 0.486,-0.237L0.486,-0.296C0.486,-0.324 0.48,-0.348 0.468,-0.369C0.456,-0.39 0.439,-0.406 0.416,-0.417C0.393,-0.428 0.366,-0.434 0.333,-0.434C0.304,-0.434 0.279,-0.429 0.258,-0.419C0.236,-0.408 0.219,-0.393 0.208,-0.373C0.196,-0.352 0.19,-0.327 0.19,-0.297L0.19,-0.236C0.19,-0.205 0.196,-0.18 0.208,-0.16C0.219,-0.139 0.236,-0.124 0.258,-0.114C0.279,-0.104 0.304,-0.099 0.333,-0.099Z" style="fill:white;fill-rule:nonzero;"/>
                </g>
                <g transform="matrix(216,0,0,216,558.64,310)">
                    <path d="M0.07,-0L0.07,-0.415C0.07,-0.453 0.082,-0.482 0.106,-0.502C0.129,-0.522 0.16,-0.532 0.198,-0.532L0.442,-0.532L0.442,-0.425L0.216,-0.425L0.216,-0L0.07,-0Z" style="fill:white;fill-rule:nonzero;"/>
                </g>
                <g transform="matrix(216,0,0,216,655.624,310)">
                    <path d="M0.335,0.01C0.276,0.01 0.224,0 0.179,-0.02C0.133,-0.04 0.098,-0.07 0.073,-0.111C0.048,-0.151 0.035,-0.201 0.035,-0.261L0.035,-0.271C0.035,-0.332 0.048,-0.382 0.074,-0.423C0.099,-0.463 0.134,-0.493 0.179,-0.513C0.224,-0.532 0.276,-0.542 0.335,-0.542C0.394,-0.542 0.446,-0.532 0.492,-0.513C0.537,-0.493 0.572,-0.463 0.597,-0.423C0.622,-0.382 0.635,-0.332 0.635,-0.271L0.635,-0.261C0.635,-0.201 0.622,-0.151 0.597,-0.111C0.572,-0.07 0.537,-0.04 0.492,-0.02C0.446,0 0.394,0.01 0.335,0.01ZM0.335,-0.098C0.368,-0.098 0.395,-0.103 0.417,-0.115C0.439,-0.126 0.456,-0.141 0.468,-0.16C0.48,-0.179 0.486,-0.202 0.486,-0.228L0.486,-0.304C0.486,-0.329 0.48,-0.352 0.469,-0.372C0.457,-0.391 0.44,-0.407 0.418,-0.418C0.395,-0.428 0.368,-0.434 0.335,-0.434C0.303,-0.434 0.276,-0.428 0.254,-0.418C0.231,-0.407 0.214,-0.391 0.203,-0.372C0.191,-0.352 0.185,-0.329 0.185,-0.304L0.185,-0.228C0.185,-0.202 0.191,-0.179 0.203,-0.16C0.214,-0.141 0.231,-0.126 0.254,-0.115C0.276,-0.103 0.303,-0.098 0.335,-0.098Z" style="fill:white;fill-rule:nonzero;"/>
                </g>
            </g>
        </g>
    </g>
</svg>
